<svg width="140" height="105" viewBox="0 0 140 105" fill="none" xmlns="http://www.w3.org/2000/svg">
<path d="M10.8385 89.1456H4.15346L14.4435 69.2656H21.8285L31.6635 89.1456H24.2435L22.7385 85.5756H12.4135L10.8385 89.1456ZM20.9535 81.2356L17.7685 73.9906L14.4085 81.2356H20.9535Z" fill="#FF6600"/>
<path d="M33.18 69.2651H39.585V89.1451H33.18V69.2651Z" fill="#FF6600"/>
<path d="M42.84 69.2651H49.245V73.3251H42.84V69.2651ZM42.84 75.2851H49.245V89.1451H42.84V75.2851Z" fill="#FF6600"/>
<path d="M52.7419 69.2495H59.1469V77.2645C59.9169 76.4945 60.7569 75.8995 61.7019 75.5145C62.6469 75.1295 63.6619 74.9195 64.7819 74.9195C66.9519 74.9195 68.7019 75.6195 70.0319 77.0195C71.3619 78.4195 72.0269 80.2745 72.0269 82.5495C72.0269 84.6495 71.3619 86.3295 70.0669 87.5895C68.7719 88.8495 67.0219 89.4795 64.8519 89.4795C63.6619 89.4795 62.5769 89.2695 61.5969 88.8145C60.6169 88.3945 59.8119 87.7295 59.1119 86.8895C59.1119 87.3445 59.1119 87.7645 59.0419 88.1495C59.0069 88.5345 58.9369 88.8495 58.8669 89.1295H52.4619C52.5319 88.8845 52.6019 88.5345 52.6369 88.1495C52.6719 87.7645 52.7069 87.3095 52.7069 86.8195V69.2495H52.7419ZM65.5869 82.2695C65.5869 81.0445 65.3069 80.0995 64.7119 79.3645C64.1519 78.6645 63.3469 78.3145 62.3669 78.3145C61.3169 78.3145 60.5119 78.6645 59.9169 79.3295C59.3569 79.9945 59.0769 81.0095 59.0769 82.3045C59.0769 83.5295 59.3569 84.4745 59.9169 85.1395C60.4769 85.8045 61.2819 86.1545 62.2969 86.1545C63.3119 86.1545 64.0819 85.8045 64.6769 85.1045C65.2719 84.4045 65.5869 83.4595 65.5869 82.2695Z" fill="#FF6600"/>
<path d="M86.6566 86.9173C86.0616 87.7223 85.2566 88.3173 84.2766 88.7023C83.2966 89.0873 82.1416 89.2973 80.7416 89.2973C78.7816 89.2973 77.2416 88.9473 76.1916 88.2473C75.1416 87.5473 74.6166 86.5673 74.6166 85.2723C74.6166 83.5223 75.5266 82.2623 77.3466 81.4923C79.1666 80.7223 82.2466 80.3023 86.5516 80.2673C86.5516 80.2323 86.5516 80.1973 86.5516 80.1273C86.5516 80.0573 86.5516 79.9873 86.5516 79.9523C86.5516 79.2523 86.3416 78.7273 85.9216 78.3773C85.5016 78.0273 84.8716 77.8523 83.9966 77.8523C83.2266 77.8523 82.6316 77.9923 82.2116 78.2373C81.7916 78.4823 81.5466 78.8673 81.4766 79.3923H75.5616C75.5966 77.8523 76.3316 76.6973 77.7316 75.9623C79.1666 75.2273 81.3366 74.8423 84.2766 74.8423C87.0766 74.8423 89.1766 75.2623 90.5766 76.1723C91.9416 77.0473 92.6416 78.3773 92.6416 80.1623V87.2323C92.6416 87.6523 92.6766 88.0373 92.7116 88.2823C92.7466 88.5623 92.8166 88.8073 92.9216 89.0173H86.9716C86.8666 88.7023 86.7616 88.3523 86.7266 88.0023C86.6916 87.6523 86.6566 87.3023 86.6566 86.9173ZM86.5166 82.9623C84.4516 82.9623 83.0166 83.1023 82.2816 83.3823C81.5466 83.6623 81.1616 84.1173 81.1616 84.7823C81.1616 85.2373 81.3366 85.5873 81.7216 85.8673C82.0716 86.1123 82.5966 86.2523 83.2616 86.2523C84.3466 86.2523 85.1516 86.0073 85.7116 85.4823C86.2716 84.9923 86.5166 84.2223 86.5166 83.1723V82.9623Z" fill="#FF6600"/>
<path d="M95.5731 69.2495H101.978V77.2645C102.748 76.4945 103.588 75.8995 104.533 75.5145C105.478 75.1295 106.493 74.9195 107.613 74.9195C109.783 74.9195 111.533 75.6195 112.863 77.0195C114.193 78.4195 114.858 80.2745 114.858 82.5495C114.858 84.6495 114.193 86.3295 112.898 87.5895C111.603 88.8495 109.853 89.4795 107.683 89.4795C106.493 89.4795 105.408 89.2695 104.428 88.8145C103.448 88.3945 102.643 87.7295 101.943 86.8895C101.943 87.3445 101.908 87.7645 101.873 88.1495C101.838 88.5345 101.768 88.8495 101.698 89.1295H95.2931C95.3631 88.8845 95.4331 88.5345 95.4681 88.1495C95.5031 87.7645 95.5381 87.3095 95.5381 86.8195V69.2495H95.5731ZM108.418 82.2695C108.418 81.0445 108.138 80.0995 107.543 79.3645C106.983 78.6645 106.178 78.3145 105.198 78.3145C104.148 78.3145 103.343 78.6645 102.783 79.3295C102.223 79.9945 101.943 81.0095 101.943 82.3045C101.943 83.5295 102.223 84.4745 102.783 85.1395C103.343 85.8045 104.148 86.1545 105.163 86.1545C106.143 86.1545 106.948 85.8045 107.543 85.1045C108.138 84.4045 108.418 83.4595 108.418 82.2695Z" fill="#FF6600"/>
<path d="M129.488 86.9173C128.893 87.7223 128.088 88.3173 127.108 88.7023C126.128 89.0873 124.973 89.2973 123.573 89.2973C121.613 89.2973 120.073 88.9473 119.023 88.2473C117.973 87.5473 117.448 86.5673 117.448 85.2723C117.448 83.5223 118.358 82.2623 120.178 81.4923C121.998 80.7223 125.078 80.3023 129.383 80.2673C129.383 80.2323 129.383 80.1973 129.383 80.1273C129.383 80.0573 129.383 79.9873 129.383 79.9523C129.383 79.2523 129.173 78.7273 128.753 78.3773C128.333 78.0273 127.703 77.8523 126.828 77.8523C126.058 77.8523 125.463 77.9923 125.043 78.2373C124.623 78.4823 124.378 78.8673 124.308 79.3923H118.393C118.428 77.8523 119.163 76.6973 120.563 75.9623C121.998 75.2273 124.168 74.8423 127.108 74.8423C129.908 74.8423 132.008 75.2623 133.408 76.1723C134.773 77.0473 135.473 78.3773 135.473 80.1623V87.2323C135.473 87.6523 135.508 88.0373 135.543 88.2823C135.578 88.5623 135.648 88.8073 135.753 89.0173H129.803C129.698 88.7023 129.593 88.3523 129.558 88.0023C129.523 87.6523 129.488 87.3023 129.488 86.9173ZM129.348 82.9623C127.283 82.9623 125.883 83.1023 125.113 83.3823C124.378 83.6623 123.993 84.1173 123.993 84.7823C123.993 85.2373 124.168 85.5873 124.553 85.8673C124.903 86.1123 125.428 86.2523 126.093 86.2523C127.178 86.2523 127.983 86.0073 128.543 85.4823C129.103 84.9923 129.348 84.2223 129.348 83.1723V82.9623Z" fill="#FF6600"/>
<path d="M42.1777 53.9385C41.8277 53.9035 41.2677 53.5885 40.8827 53.2735C37.1377 49.5985 41.9327 45.3635 47.5327 42.9135V35.9135C48.8277 36.7535 49.5627 36.7885 49.5977 36.8935L53.8677 32.6585L52.4327 29.0185C64.9277 24.7135 69.9327 23.0685 80.0827 21.3535L78.2627 19.6385L81.2377 17.9585C88.0627 20.1985 94.5027 20.7935 93.3827 26.5335C93.6627 22.6485 88.8327 21.1785 81.4827 19.1135L80.0477 19.9885L82.7777 22.2285C70.6327 24.3285 63.1427 26.7085 54.2527 29.7885L55.4777 32.9385L50.9977 37.3835C51.7327 37.5935 59.5377 40.1835 67.6227 34.5485C67.6227 34.5485 67.7977 34.4435 67.7977 34.3735C67.5527 33.9885 66.9927 33.5335 66.3277 32.9385C68.7077 33.1135 70.2477 35.1785 69.9677 37.3485H68.8477C68.9177 36.6485 68.7777 35.8785 68.5327 35.3885C62.2677 39.9735 54.9877 40.6385 48.7927 38.4685V43.8935C45.7827 44.9435 40.4277 48.2685 40.4627 51.4885C40.6727 52.9935 41.4427 53.5535 42.1777 53.9385Z" fill="black"/>
<path d="M67.8021 52.1453C61.0821 55.5403 54.6421 58.2703 44.7371 58.6553C31.8221 58.3753 29.8271 49.8003 35.9171 40.8403C41.6921 31.8103 50.8621 23.6203 65.4221 18.5103C69.6571 17.0053 75.8521 15.3253 81.8371 15.2203C90.4471 15.1503 98.8121 17.8103 98.2521 26.0703C97.9371 32.4053 88.8021 41.2953 84.0071 47.7003C81.9421 50.5003 81.5921 52.3203 85.1271 52.1453C97.9021 51.3053 109.452 46.8953 120.197 42.3103C112.917 47.2453 75.3621 65.8303 75.2221 53.1603C75.2571 51.5503 75.9921 49.8353 77.2171 48.0153C78.4071 46.1953 80.0521 44.3053 81.7671 42.3803C84.3221 39.4753 90.6921 32.4753 92.8271 28.2753C96.4321 20.4353 88.3821 20.0503 81.4171 17.6003L78.4421 19.2803L80.2621 20.9953C70.1121 22.6753 65.1071 24.3553 52.6121 28.6603L54.0471 32.3003L49.8121 36.5003C49.7071 36.3953 49.0771 36.3603 47.7471 35.5203V42.5203C42.1821 44.9703 37.3521 49.2053 41.0971 52.8803C41.4821 53.1953 42.0421 53.5103 42.3921 53.5453C49.2521 57.3953 67.8371 52.1453 67.8021 52.1453Z" fill="#FF6600"/>
<path d="M107.961 56.6931H108.836C109.011 56.6931 109.151 56.6581 109.256 56.6231C109.361 56.5881 109.431 56.5181 109.501 56.4481C109.571 56.3431 109.571 56.2731 109.571 56.1681C109.571 56.0281 109.501 55.8881 109.396 55.8181C109.291 55.7131 109.116 55.6781 108.906 55.6781H107.961V56.6931ZM107.576 58.4431V55.3281H108.976C109.256 55.3281 109.466 55.3631 109.606 55.3981C109.746 55.4681 109.851 55.5381 109.956 55.7131C110.061 55.8531 110.096 55.9931 110.096 56.1681C110.096 56.3781 110.026 56.5881 109.886 56.7281C109.746 56.8681 109.536 56.9731 109.221 57.0081C109.326 57.0431 109.431 57.1131 109.466 57.1481C109.571 57.2531 109.711 57.3931 109.816 57.5681L110.376 58.4081H109.851L109.431 57.7781C109.326 57.5681 109.221 57.4281 109.116 57.3231C109.046 57.2181 108.976 57.1481 108.906 57.1131C108.836 57.0781 108.801 57.0431 108.731 57.0431C108.696 57.0431 108.626 57.0431 108.486 57.0431H107.961V58.4431H107.576Z" fill="#FF6600"/>
<path d="M108.82 59.8855C110.465 59.8855 111.795 58.5555 111.795 56.9105C111.795 55.2655 110.465 53.9355 108.82 53.9355C107.175 53.9355 105.845 55.2655 105.845 56.9105C105.845 58.5555 107.175 59.8855 108.82 59.8855ZM106.3 56.9105C106.3 55.5105 107.42 54.3905 108.82 54.3905C110.22 54.3905 111.34 55.5105 111.34 56.9105C111.34 58.2755 110.22 59.4306 108.82 59.4306C107.42 59.4306 106.3 58.3105 106.3 56.9105Z" fill="#FF6600"/>
</svg>
