<svg width="180" height="42" viewBox="0 0 180 42" fill="none" xmlns="http://www.w3.org/2000/svg">
<g clip-path="url(#clip0)">
<path d="M44.9173 31.1855V3.47412H61.296V6.94838H48.3088V15.4686H59.9724V18.9429H48.3088V27.6285H62.2059V31.1028H44.9173V31.1855Z" fill="#E43225"/>
<path d="M79.4118 31.1854L73.7868 23.8232L68.1618 31.1854H64.1912L71.8842 21.3416L63.7776 11.167H68.2445L73.7868 18.7773L79.4118 11.167H83.796L76.103 21.3416L83.3824 31.1854H79.4118Z" fill="#E43225"/>
<path d="M88.8419 28.2076V41.8564H85.4504V21.4245C85.4504 16.2131 89.4209 10.6708 95.625 10.6708C101.912 10.6708 106.627 14.6414 106.627 21.1763C106.627 27.5458 101.829 31.93 96.3695 31.93C93.7224 31.93 90.1654 30.7719 88.8419 28.2076ZM103.07 21.1763C103.07 16.7094 100.175 14.0623 95.046 14.3105C92.5643 14.3932 88.7592 16.2131 89.0901 22.5825C89.1728 24.6506 91.3235 28.5384 96.0386 28.5384C100.092 28.5384 103.07 26.2222 103.07 21.1763Z" fill="#E43225"/>
<path d="M109.522 31.1856V11.1673H112.914V13.318C114.568 11.4154 117.132 10.7537 119.862 10.7537V14.3934C119.449 14.3106 115.395 13.8143 112.914 19.1084V31.2684H109.522V31.1856Z" fill="#E43225"/>
<path d="M120.772 21.1763C120.772 15.3858 124.908 10.6708 130.616 10.6708C137.73 10.6708 140.377 15.3858 140.377 21.4245V23.0789H124.495C124.743 26.884 128.134 28.8693 131.278 28.7866C133.594 28.7039 135.165 28.0421 136.82 26.3877L139.053 28.7039C136.985 30.6891 134.338 32.0127 131.112 32.0127C125.074 31.93 120.772 27.4631 120.772 21.1763ZM130.368 14.0623C127.142 14.0623 124.66 16.8748 124.495 19.9355H136.82C136.82 16.9575 134.669 14.0623 130.368 14.0623Z" fill="#E43225"/>
<path d="M142.114 28.3729L144.596 26.1395C144.513 26.1395 145.836 27.463 146.002 27.5457C146.581 28.042 147.16 28.3729 147.904 28.5384C150.055 29.1174 153.943 28.952 154.274 25.974C154.439 24.3196 153.199 23.4097 151.792 22.8306C149.972 22.1689 147.987 21.9207 146.167 21.0935C144.099 20.1836 142.776 18.6119 142.776 16.2957C142.776 10.2571 151.379 9.26447 155.267 12.077C155.432 12.2424 157.335 13.9795 157.252 13.9795L154.77 15.9648C153.529 14.4759 152.371 13.7314 149.724 13.7314C148.401 13.7314 146.581 14.3104 146.25 15.7167C145.754 17.702 147.987 18.4465 149.476 18.8601C151.461 19.3564 153.612 19.6873 155.349 20.7626C157.748 22.2516 158.327 25.4777 157.417 27.9593C156.425 30.6891 153.447 31.7645 150.8 31.8472C147.656 32.0126 144.926 31.02 142.693 28.7865C142.528 28.7865 142.114 28.3729 142.114 28.3729Z" fill="#E43225"/>
<path d="M159.568 28.3729L162.05 26.1395C161.967 26.1395 163.29 27.463 163.456 27.5457C164.035 28.042 164.614 28.3729 165.358 28.5384C167.509 29.1174 171.397 28.952 171.728 25.974C171.893 24.3196 170.653 23.4097 169.246 22.8306C167.426 22.1689 165.441 21.9207 163.621 21.0935C161.553 20.1836 160.23 18.6119 160.23 16.2957C160.23 10.2571 168.833 9.26447 172.721 12.077C172.886 12.2424 174.789 13.9795 174.706 13.9795L172.224 15.9648C170.983 14.4759 169.825 13.7314 167.178 13.7314C165.855 13.7314 164.035 14.3104 163.704 15.7167C163.208 17.702 165.441 18.4465 166.93 18.8601C168.915 19.3564 171.066 19.6873 172.803 20.7626C175.202 22.2516 175.781 25.4777 174.871 27.9593C173.879 30.6891 170.901 31.7645 168.254 31.8472C165.11 32.0126 162.381 31.02 160.147 28.7865C159.982 28.7865 159.568 28.3729 159.568 28.3729Z" fill="#E43225"/>
<path d="M175.699 11.167V9.01626H174.954V8.60266H176.939V9.01626H176.195V11.167H175.699Z" fill="#E43225"/>
<path d="M179.421 11.167V9.1817L178.677 11.167H178.511L177.767 9.1817V11.167H177.353V8.60266H178.015L178.677 10.3398L179.338 8.60266H180V11.167H179.421Z" fill="#E43225"/>
<path d="M21.921 31.1855L19.4393 24.5679H6.03861L3.55699 31.1855H0L10.7537 3.47412H14.6415L25.3125 31.1855H21.921ZM12.5735 7.44471L7.52758 21.1763H18.0331L12.5735 7.44471Z" fill="#F7971D"/>
<path d="M27.546 31.1855V3.47412H31.0202V31.1855H27.546Z" fill="#F7971D"/>
<path d="M36.2316 31.1858V11.5811H39.7059V31.1858H36.2316Z" fill="#F7971D"/>
<path d="M43.0147 5.21139C43.0147 5.12867 43.0147 5.12867 43.0147 5.04595C43.0147 4.96323 43.0147 4.96323 43.0147 4.88051C40.3677 4.79779 38.2169 2.64706 38.1342 0C38.0515 0 37.9688 0 37.886 0C37.8033 0 37.7206 0 37.6379 0C37.5552 2.64706 35.4044 4.79779 32.7574 4.88051C32.7574 4.96323 32.7574 4.96323 32.7574 5.04595C32.7574 5.12867 32.7574 5.12867 32.7574 5.21139C35.4044 5.29411 37.5552 7.44485 37.6379 10.0919C37.7206 10.0919 37.8033 10.0919 37.886 10.0919C37.9688 10.0919 38.0515 10.0919 38.1342 10.0919C38.2169 7.44485 40.3677 5.29411 43.0147 5.21139Z" fill="#F7971D"/>
</g>
<defs>
<clipPath id="clip0">
<rect width="180" height="41.8566" fill="white"/>
</clipPath>
</defs>
</svg>
