<svg width="160" height="48" viewBox="0 0 160 48" fill="none" xmlns="http://www.w3.org/2000/svg">
<path d="M41.1021 14.3946H37.914L37.1394 15.368C37.0034 15.5041 37.0482 15.6492 37.1843 15.694L38.231 16.1546L41.1918 14.7729C41.2328 14.7533 41.2659 14.7203 41.2855 14.6793C41.3051 14.6382 41.3101 14.5918 41.2996 14.5475C41.2891 14.5033 41.2638 14.464 41.2278 14.4362C41.1919 14.4083 41.1475 14.3936 41.1021 14.3946Z" fill="#4A835B"/>
<path d="M34.7984 16.13C35.1431 15.7844 35.1423 15.2249 34.7967 14.8802C34.4511 14.5356 33.8916 14.5364 33.5469 14.8819C33.2023 15.2275 33.203 15.7871 33.5486 16.1317C33.8942 16.4764 34.4538 16.4756 34.7984 16.13Z" fill="white"/>
<path d="M29.268 30.0387H25.3443C24.4657 30.5363 23.5504 30.9662 22.6064 31.3247C22.5092 31.3666 22.4703 31.386 22.5166 31.5206L26.0232 41.2492H27.9387L24.7252 32.3849H24.812C26.9054 32.3849 31.9013 31.863 34.6049 27.4951C33.9854 28.3171 33.1769 28.9775 32.2478 29.4202C31.3188 29.863 30.2966 30.0752 29.268 30.0387ZM29.8243 24.2204C30.0396 23.8944 30.2445 23.534 30.4389 23.1961C30.3492 23.1482 30.2684 23.0914 30.1787 23.1856C28.817 24.7469 27.1243 25.9849 25.2238 26.8096C23.3234 27.6342 21.2629 28.0247 19.1925 27.9527H14.5809C14.4419 27.9527 14.3267 27.8271 14.4314 27.691C17.4685 23.5506 20.9677 19.7699 24.8613 16.4223L17.1365 22.918C16.4937 23.4834 15.6643 23.7908 14.8082 23.7808H5.0886C4.81346 23.7808 4.90468 23.9796 4.94954 24.1157C5.32466 25.3154 6.08927 26.3556 7.12228 27.0718C8.1553 27.7879 9.39768 28.139 10.6527 28.0694L8.37832 30.4484C8.2886 30.5381 8.2886 30.8208 8.5144 30.8208H17.1873C19.6896 30.938 22.1782 30.3885 24.3985 29.2285C26.6188 28.0686 28.4912 26.3398 29.8243 24.2189V24.2204ZM27.2598 34.0267L29.8587 41.2492H31.7772L29.0318 33.623C28.4511 33.7983 27.8591 33.9332 27.2598 34.0267ZM41.126 14.3946H37.932L37.1574 15.3636C37.0213 15.5026 37.0677 15.6432 37.2022 15.688L38.249 16.1456L41.2127 14.7714C41.254 14.7525 41.2876 14.7199 41.3077 14.6791C41.3278 14.6384 41.3332 14.5919 41.323 14.5476C41.3128 14.5034 41.2876 14.4639 41.2517 14.4361C41.2158 14.4082 41.1714 14.3935 41.126 14.3946ZM34.7978 16.1307C34.6739 16.2536 34.5164 16.3371 34.3452 16.3706C34.1739 16.4042 33.9966 16.3863 33.8355 16.3192C33.6744 16.2521 33.5368 16.1388 33.44 15.9936C33.3432 15.8485 33.2915 15.6779 33.2915 15.5034C33.2915 15.3289 33.3432 15.1583 33.44 15.0131C33.5368 14.8679 33.6744 14.7546 33.8355 14.6876C33.9966 14.6205 34.1739 14.6026 34.3452 14.6361C34.5164 14.6697 34.6739 14.7532 34.7978 14.8761C34.4987 14.5798 34.0944 14.4143 33.6735 14.4157C33.2526 14.4172 32.8494 14.5856 32.5525 14.8839C32.2555 15.1823 32.089 15.5862 32.0895 16.0071C32.09 16.4281 32.2574 16.8316 32.5551 17.1292C32.8527 17.4269 33.2563 17.5943 33.6772 17.5948C34.0981 17.5953 34.5021 17.4288 34.8004 17.1319C35.0987 16.8349 35.2671 16.4318 35.2686 16.0108C35.27 15.5899 35.1045 15.1856 34.8082 14.8865C34.9712 15.0532 35.0616 15.2776 35.0596 15.5108C35.0577 15.7439 34.9635 15.9667 34.7978 16.1307Z" fill="#00985F"/>
<path d="M34.7583 15.9934C35.0497 15.702 35.0497 15.2296 34.7583 14.9382C34.4669 14.6468 33.9944 14.6468 33.703 14.9382C33.4117 15.2296 33.4117 15.702 33.703 15.9934C33.9944 16.2848 34.4669 16.2848 34.7583 15.9934Z" fill="white"/>
<path d="M34.6019 27.4951C36.462 23.9574 37.6964 20.1248 38.2505 16.1665L37.2037 15.7029C37.0677 15.6581 37.0228 15.5175 37.1589 15.3785L37.9335 14.417C37.4135 13.628 36.7016 12.9842 35.8647 12.5458C35.0277 12.1074 34.093 11.8889 33.1484 11.9108C31.7147 11.8919 30.3084 12.3034 29.111 13.0921C27.6334 14.1348 26.2123 15.2554 24.8538 16.4491C20.9598 19.7869 17.4604 23.5592 14.4239 27.6925C14.3267 27.8286 14.4419 27.9542 14.5735 27.9542H19.1925C21.2651 28.0232 23.327 27.6295 25.2285 26.8018C27.1299 25.9741 28.8229 24.7331 30.1847 23.1691C30.2157 23.1314 30.2602 23.1071 30.3087 23.1016C30.3573 23.096 30.4061 23.1095 30.4449 23.1392C30.4877 23.1712 30.5173 23.2177 30.5283 23.27C30.5394 23.3223 30.5309 23.3768 30.5047 23.4233C29.4812 26.0907 27.6875 28.3934 25.3518 30.0387H29.2755C30.3023 30.0735 31.3224 29.8605 32.2495 29.4177C33.1766 28.975 33.9835 28.3155 34.6019 27.4951ZM32.5473 17.1325C32.3238 16.9104 32.1713 16.6269 32.1091 16.318C32.0469 16.0091 32.0778 15.6887 32.1979 15.3974C32.318 15.1061 32.522 14.857 32.7838 14.6817C33.0457 14.5065 33.3537 14.4129 33.6688 14.4129C33.9839 14.4129 34.2919 14.5065 34.5537 14.6817C34.8156 14.857 35.0195 15.1061 35.1397 15.3974C35.2598 15.6887 35.2907 16.0091 35.2285 16.318C35.1663 16.6269 35.0138 16.9104 34.7903 17.1325C34.4921 17.4279 34.0893 17.5936 33.6695 17.5936C33.2498 17.5936 32.847 17.4279 32.5488 17.1325H32.5473ZM36.2198 28.4611C34.928 30.5274 33.0138 32.1305 30.7529 33.0398L33.6972 41.2491H42.2654C40.5518 36.2951 38.717 31.4263 36.9869 27.0091C36.7536 27.4891 36.4964 28.017 36.2213 28.4611H36.2198ZM4.48598 41.2491H13.1589L15.9641 32.645H7.50205C6.54355 35.2529 5.52822 38.1209 4.48598 41.2491ZM15.9028 21.3852L20.9077 17.2327C21.7346 15.0016 22.5854 12.793 23.4751 10.888C23.9237 11.9033 24.3409 12.9291 24.7821 14.0102C26.714 12.4147 27.982 11.5534 28.0449 11.5115L28.0733 11.4966C28.8617 10.9668 29.7279 10.5632 30.6407 10.3003C29.5013 7.80912 28.6968 6.05061 28.3095 5.26855H18.5944C17.7854 7.09435 14.7664 13.3523 11.2344 21.6947H14.8082C15.1991 21.7341 15.5904 21.6234 15.9028 21.3852Z" fill="#E0001A"/>
<path d="M53.0572 36.2008C52.6193 36.2563 52.1745 36.2132 51.7553 36.0747C51.3362 35.9361 50.9534 35.7056 50.6348 35.4C50.3163 35.0943 50.0701 34.7213 49.9144 34.3083C49.7586 33.8953 49.6972 33.4526 49.7346 33.0128V19.6086H42.6946V33.9638C42.6946 39.2468 45.0512 41.8442 50.0217 41.8442" fill="#E0001A"/>
<path d="M56.5129 34.6547C55.5999 35.588 54.3594 36.1292 53.0542 36.1635C52.6152 36.2188 52.1694 36.1751 51.7495 36.0356C51.3297 35.8961 50.9464 35.6643 50.6278 35.3572C50.3093 35.0501 50.0635 34.6756 49.9087 34.2611C49.7539 33.8466 49.6939 33.4027 49.7331 32.962V19.3545H42.6946V33.9295C42.6946 39.2349 45.0318 41.8413 50.0217 41.8413C51.3963 41.9439 52.7763 41.732 54.0568 41.2216C55.3372 40.7111 56.4846 39.9156 57.4116 38.8955L57.8482 41.2551H63.5574V19.3485H56.5129V34.6547ZM78.8845 35.7508C75.363 35.7508 73.5312 33.5571 73.5312 30.2181C73.5312 27.0181 75.3615 25.0502 78.8381 25.0502C80.5106 25.0213 82.1527 25.4994 83.5484 26.4214L84.5563 20.4282C82.2104 19.3931 79.6636 18.893 77.1006 18.9642C70.0112 18.9642 66.1219 23.036 66.1219 30.4917C66.1219 37.9923 69.7809 41.8353 76.9181 41.8353C79.7397 41.8764 82.5255 41.1998 85.0138 39.8689L84.0075 34.2884C82.4493 35.1973 80.6877 35.7002 78.8845 35.7508ZM100.701 18.9642C98.4209 18.8304 96.1649 19.4933 94.3193 20.8394V11.2693H87.0176V41.2491H94.3178V26.1463C94.7434 25.6853 95.2572 25.3143 95.8286 25.0552C96.4 24.796 97.0176 24.654 97.6449 24.6375C98.0776 24.5843 98.5169 24.6305 98.9291 24.7727C99.3413 24.9149 99.7156 25.1493 100.024 25.4581C100.331 25.7668 100.565 26.1418 100.706 26.5544C100.847 26.967 100.892 27.4064 100.837 27.839V41.2491H108.138V26.8775C108.138 21.5721 105.687 18.9642 100.701 18.9642ZM148.73 18.9642C147.356 18.8467 145.973 19.0412 144.684 19.5332C143.396 20.0251 142.235 20.8019 141.289 21.8054L140.801 19.3441H134.992V41.2491H142.292V26.1463C142.718 25.6853 143.232 25.3143 143.803 25.0552C144.375 24.796 144.992 24.654 145.619 24.6375C146.052 24.5845 146.491 24.6309 146.903 24.7732C147.315 24.9155 147.689 25.15 147.997 25.4587C148.305 25.7675 148.538 26.1423 148.679 26.5548C148.82 26.9673 148.865 27.4065 148.81 27.839V41.2491H156.111V26.8775C156.111 21.5721 153.669 18.9642 148.73 18.9642ZM110.611 31.2259C110.611 38.6368 113.355 41.8427 118.663 41.8427C119.941 41.9487 121.225 41.7349 122.4 41.2206C123.575 40.7064 124.603 39.9078 125.392 38.897L125.758 41.2566H131.61V20.3355C128.378 19.3255 125.001 18.862 121.616 18.9642C114.518 18.9642 110.611 23.3097 110.611 31.2244V31.2259ZM124.302 34.6562C123.864 35.1352 123.331 35.517 122.737 35.7769C122.142 36.0368 121.5 36.169 120.851 36.165C118.931 36.165 117.868 34.3811 117.868 30.9508C117.868 26.7429 119.028 24.639 121.307 24.639C122.313 24.6165 123.319 24.724 124.298 24.959L124.302 34.6562Z" fill="#E0001A"/>
</svg>
