<svg width="77" height="100" viewBox="0 0 77 100" fill="none" xmlns="http://www.w3.org/2000/svg">
<path d="M47.8296 37.6695L42.2819 37.6546L71.3686 0.332689L75.8918 0.331299L47.8296 37.6695Z" fill="#FC1721"/>
<path d="M44.3727 99.6566C43.4459 99.5264 43.0379 99.413 42.511 99.1399C41.8483 98.7964 41.3925 98.3412 41.1004 97.731C40.8462 97.2001 40.7862 96.883 40.7862 96.0712C40.7862 95.2143 40.8447 94.9385 41.1668 94.2768C41.499 93.5944 41.938 93.133 42.6445 92.724C43.3752 92.3008 44.2434 92.1017 45.3595 92.1011C45.998 92.1007 47.1596 92.2099 47.2328 92.277C47.271 92.312 47.3461 93.7617 47.3109 93.783C47.2986 93.7905 47.1169 93.7572 46.9072 93.709C46.681 93.6571 46.2684 93.6108 45.8932 93.5955C45.1412 93.5646 44.7534 93.6326 44.254 93.8824C42.9354 94.5421 42.5252 96.4616 43.4834 97.4889C43.7576 97.7828 43.9517 97.9052 44.3632 98.0433C44.9629 98.2446 45.7415 98.237 46.7466 98.0199C46.9668 97.9723 47.1554 97.9419 47.1658 97.9522C47.1858 97.9723 46.9495 99.4666 46.9208 99.5008C46.8539 99.5809 44.7492 99.7096 44.3727 99.6566ZM0.358525 99.3355C0.464125 98.5133 0.608573 95.7078 0.642621 93.817L0.671107 92.2357H3.49691H6.32271L6.29373 92.6731C6.27781 92.9136 6.26466 93.2366 6.26457 93.3908L6.26435 93.6712H4.58763C3.29975 93.6712 2.90063 93.6842 2.86663 93.7273C2.84232 93.7581 2.80975 94.0597 2.79432 94.3974C2.77045 94.9196 2.77669 95.022 2.83626 95.0815C2.89664 95.1419 3.09461 95.1516 4.27688 95.1516H5.64753L5.61949 95.2917C5.60406 95.3689 5.59145 95.6918 5.59145 96.0095V96.5871H4.18389C3.11219 96.5871 2.76534 96.6004 2.73044 96.6431C2.70325 96.6763 2.66902 97.275 2.64641 98.1123L2.60828 99.5254L1.4697 99.5374L0.331116 99.5494L0.358525 99.3355ZM7.74467 99.4741C7.74467 99.4335 7.78428 98.8128 7.83273 98.0946C7.95901 96.2215 8.00773 95.1813 8.04245 93.6151L8.07305 92.2357H9.19952H10.326L10.2728 92.9646C10.1738 94.3205 10.1236 95.436 10.0688 97.4955L10.0142 99.5478H8.87944C7.85678 99.5478 7.74467 99.5405 7.74467 99.4741ZM12.1571 99.2899C12.2563 98.3692 12.4339 95.1268 12.4829 93.3453L12.5134 92.2343L13.862 92.2462L15.2105 92.2581L16.4976 94.6132C17.9114 97.2002 17.9416 97.2427 17.9919 96.713C18.039 96.2165 18.107 94.6858 18.1373 93.4416L18.1666 92.2357H19.153H20.1395L20.109 92.6955C19.9075 95.7413 19.7671 98.2868 19.7671 98.8938C19.7671 99.0993 19.7545 99.3305 19.7391 99.4076L19.711 99.5478H18.4213H17.1316L16.8543 99.0528C16.7019 98.7806 16.2431 97.9892 15.8348 97.2941C15.4265 96.5992 14.9618 95.7873 14.8021 95.4901C14.4758 94.8829 14.4093 94.7942 14.3354 94.8681C14.3064 94.8971 14.2698 95.2569 14.2466 95.741C14.1957 96.7993 14.1148 98.987 14.1148 99.3035V99.5478H13.1221H12.1293L12.1571 99.2899ZM20.8437 99.5065C20.8437 99.4837 20.9521 99.2768 21.0846 99.0467C21.6657 98.0374 23.3088 94.9304 24.1407 93.2678L24.6578 92.2344L26.0305 92.2463L27.4033 92.2581L27.485 92.4824C27.5299 92.6058 27.7894 93.3328 28.0616 94.0979C28.4454 95.1767 29.881 99.0314 30.0619 99.4693C30.0924 99.543 30.0217 99.5478 28.9345 99.5471L27.7745 99.5464L27.4701 98.6162C27.3027 98.1047 27.1371 97.6205 27.1022 97.5404L27.0387 97.3946H25.6289C24.5538 97.3946 24.209 97.4079 24.1764 97.4507C24.1529 97.4815 23.9243 97.966 23.6683 98.5273L23.203 99.5479H22.0233C21.3345 99.5479 20.8437 99.5306 20.8437 99.5065ZM26.6359 95.903C26.6462 95.794 26.6206 95.7029 26.308 94.7341C26.0265 93.8618 25.9825 93.7575 25.9018 93.7697C25.8318 93.7802 25.7056 94.0077 25.3466 94.7702C25.0911 95.313 24.8818 95.8026 24.8815 95.8581L24.881 95.959H25.7558C26.4229 95.959 26.6319 95.9457 26.6359 95.903ZM31.1333 99.1917C31.2548 97.7361 31.3938 95.1397 31.456 93.1659L31.4853 92.2344L32.8295 92.2463L34.1738 92.2581L35.4479 94.5909C36.1486 95.8738 36.7521 96.9433 36.789 96.9674C36.8328 96.996 36.8715 96.9959 36.9004 96.9669C36.9563 96.911 37.02 95.8576 37.0905 93.8231L37.1456 92.2357H38.1294H39.1131L39.0841 92.5834C38.9983 93.61 38.8415 96.3287 38.7179 98.9317L38.6886 99.5492L37.3882 99.5373L36.0879 99.5254L35.5853 98.6507C35.3088 98.1695 34.8175 97.3217 34.4933 96.7665C34.1692 96.2114 33.7966 95.5556 33.6653 95.3092C33.4219 94.8524 33.2928 94.7359 33.2515 94.9356C33.2265 95.0561 33.1471 96.9919 33.105 98.5049L33.076 99.5479H32.0898H31.1037L31.1333 99.1917ZM48.9431 99.0656C48.96 98.8003 49.0027 98.1291 49.0381 97.574C49.1225 96.2498 49.1852 94.8162 49.221 93.3908L49.2499 92.2357H50.373H51.4961L51.4679 92.6058C51.3345 94.3639 51.2143 97.2517 51.2138 98.7067V99.5478H50.0633H48.9128L48.9433 99.0656H48.9431ZM53.3369 99.2226C53.3521 99.0437 53.3949 98.5441 53.4318 98.1123C53.5542 96.6814 53.6788 93.9456 53.6804 92.6506L53.681 92.2357H56.6486H59.6162L59.5869 92.781C59.5708 93.081 59.5577 93.4105 59.5577 93.5134V93.7003L57.7639 93.6797C56.4427 93.6646 55.9536 93.6729 55.9074 93.7112C55.8448 93.7632 55.7948 94.1911 55.7819 94.7858C55.7776 94.985 55.7946 95.0835 55.8387 95.1141C55.8784 95.1416 56.4536 95.1471 57.3991 95.1289L58.8966 95.1001L58.8658 95.6978C58.8489 96.0265 58.8238 96.361 58.81 96.4412L58.785 96.587H57.2703C56.0888 96.587 55.745 96.5997 55.7075 96.6448C55.6616 96.7001 55.5722 97.8378 55.6018 97.9907C55.6102 98.0348 55.6794 98.0763 55.7742 98.0941C55.9251 98.1224 57.1714 98.0981 58.655 98.0379L59.3448 98.0099L59.3146 98.5882C59.298 98.9062 59.2729 99.2522 59.2589 99.3571L59.2335 99.5478H56.2713H53.3091L53.3369 99.2226ZM61.3225 99.3347C61.3716 98.9456 61.4839 97.5625 61.531 96.7665C61.5671 96.1583 61.6603 93.0927 61.6652 92.3568L61.6661 92.2312L64.0324 92.2464C66.1187 92.2598 66.4306 92.2709 66.6679 92.3398C67.3008 92.5234 67.7611 92.8619 67.9778 93.3032C68.0959 93.5437 68.1034 93.594 68.1034 94.1445V94.73L67.934 95.0729C67.7151 95.5157 67.3982 95.8055 66.8361 96.0767C66.6079 96.1868 66.4212 96.2957 66.4212 96.3187C66.4212 96.4002 66.6883 97.0294 67.2464 98.2623C67.5574 98.9493 67.8118 99.5195 67.8118 99.5296C67.8118 99.5396 67.2967 99.5479 66.667 99.5479H65.5221L65.4822 99.4469C65.4604 99.3914 65.3089 98.9321 65.1454 98.4264C64.9821 97.9206 64.6875 97.0729 64.4909 96.5426C64.2942 96.0124 64.1333 95.5683 64.1333 95.5557C64.1333 95.5432 64.2831 95.5395 64.4664 95.5475C65.4822 95.5922 66.1864 95.0144 66.0205 94.2726C65.9624 94.0133 65.8217 93.8527 65.5465 93.7316C65.2915 93.6194 63.8245 93.5827 63.7214 93.6858C63.6719 93.7353 63.6453 93.904 63.6233 94.3069C63.5639 95.4026 63.5097 96.8589 63.4788 98.1908L63.4474 99.5478H62.3715H61.2957L61.3225 99.3347ZM69.6689 99.3347C69.8366 97.9716 70.0096 94.8307 70.0099 93.1441V92.2357H72.9874H75.9649L75.9468 92.6506C75.9368 92.8788 75.9178 93.2083 75.9045 93.3828L75.8804 93.7L74.0714 93.6797C72.3346 93.6601 72.2606 93.6627 72.2185 93.7438C72.1943 93.7902 72.1603 94.1042 72.1429 94.4416C72.1117 95.0486 72.1125 95.0556 72.2133 95.1096C72.291 95.1511 72.665 95.1564 73.7874 95.1316L75.2595 95.0991L75.2313 95.4954C75.2157 95.7134 75.1902 96.0431 75.1746 96.2282L75.1463 96.5646L73.611 96.5764C72.206 96.5872 72.0724 96.5948 72.0352 96.6662C72.0129 96.709 71.9802 97.0314 71.9625 97.3824L71.9305 98.0207L72.0458 98.0733C72.134 98.1135 72.5759 98.1135 73.9185 98.0737C74.885 98.0449 75.6797 98.0267 75.6846 98.0333C75.6996 98.0533 75.6139 99.4321 75.5939 99.492C75.5793 99.536 74.942 99.548 72.6089 99.548H69.6425L69.6688 99.3349L69.6689 99.3347ZM55.4693 91.5964C55.3914 91.5324 54.6121 90.6273 54.5614 90.5422C54.5351 90.498 54.746 90.4861 55.5573 90.4861H56.5865L56.8159 91.0209C56.9422 91.315 57.0455 91.5774 57.0455 91.604C57.0455 91.6772 55.5587 91.67 55.4693 91.5964ZM18.5334 89.4741C17.9756 89.3692 17.6095 89.2463 17.1098 88.9963C16.7231 88.8028 16.5876 88.7043 16.2645 88.3812C15.957 88.0739 15.842 87.9197 15.6927 87.6152C15.3958 87.0092 15.3476 86.7674 15.3533 85.9105C15.3574 85.3063 15.3758 85.1054 15.4539 84.8169C15.8911 83.2017 17.2243 82.2143 19.2496 82.0059C20.3613 81.8914 21.4187 82.0671 22.3038 82.5132C23.2005 82.9652 23.8009 83.7137 24.0286 84.6634C24.1417 85.1354 24.1508 86.0267 24.0476 86.5264C23.7444 87.9944 22.7368 88.9914 21.153 89.3909C20.7449 89.4937 20.5747 89.5105 19.7895 89.525C19.1206 89.5373 18.801 89.5244 18.5334 89.4741ZM20.6379 87.8709C21.2518 87.5793 21.6749 87.0397 21.8575 86.315C21.9604 85.9069 21.926 85.1342 21.7893 84.7789C21.2356 83.3404 19.3042 82.989 18.2107 84.1277C17.894 84.4575 17.7313 84.7555 17.6109 85.2266C17.2949 86.4619 17.8386 87.5727 18.9494 87.9612C19.213 88.0534 19.3169 88.0649 19.7697 88.0518C20.2599 88.0378 20.3072 88.0279 20.6379 87.8709ZM42.6904 89.4775C41.7053 89.3093 40.8983 88.9018 40.3585 88.3C40.0764 87.9854 39.7656 87.3601 39.6615 86.8974C39.5065 86.208 39.5718 85.2086 39.8185 84.4978C40.3823 82.8727 42.2452 81.8669 44.4794 81.9812C45.078 82.0119 46.0145 82.1289 46.061 82.1788C46.0767 82.1957 46.1036 82.5438 46.1207 82.9523L46.1518 83.6951L45.6435 83.5871C44.9787 83.4457 44.0695 83.4288 43.6325 83.5496C42.4902 83.8654 41.7867 84.7814 41.7847 85.9553C41.783 87.0228 42.3626 87.7587 43.396 88.0012C43.8225 88.1013 44.8313 88.0662 45.4839 87.9285C45.7498 87.8724 45.9747 87.8344 45.9839 87.8441C46.0041 87.8653 45.7538 89.3666 45.7254 89.3949C45.7146 89.4058 45.4663 89.4432 45.1737 89.478C44.5215 89.5556 43.1463 89.5553 42.6904 89.4775ZM61.2235 89.472C60.1512 89.2923 59.1924 88.7736 58.6783 88.0953C58.2166 87.4861 58.0197 86.8437 58.0223 85.9554C58.0258 84.7594 58.3215 83.9713 59.0418 83.238C59.6155 82.6539 60.3058 82.3062 61.3184 82.0912C61.875 81.9731 63.0536 81.9503 63.595 82.0472C64.7597 82.2556 65.7402 82.8346 66.2649 83.6238C67.1018 84.8827 66.981 86.9258 65.9992 88.1162C65.413 88.8269 64.4052 89.3433 63.3064 89.4961C62.8332 89.5618 61.6798 89.5485 61.2235 89.472ZM63.0511 87.9792C63.4325 87.8605 63.6669 87.7115 63.9667 87.3971C64.2642 87.0852 64.4632 86.6977 64.5595 86.2429C64.8362 84.937 64.1841 83.7895 63.0076 83.5122C61.9891 83.2721 60.9259 83.7731 60.4889 84.6992C60.2809 85.1398 60.2148 85.4406 60.2176 85.9328C60.2236 86.9495 60.8624 87.7969 61.787 88.0145C62.1025 88.0888 62.7578 88.0704 63.0511 87.9792ZM0.387684 89.2767C0.387684 89.2037 0.417067 88.6839 0.452999 88.1216C0.550614 86.5932 0.617679 85.0173 0.650203 83.488L0.679272 82.1198L2.69796 82.1075C4.9064 82.0941 5.17901 82.1141 5.61577 82.3226C6.7509 82.8643 6.97439 84.7261 6.03274 85.7959C5.6111 86.2749 4.90828 86.575 4.11907 86.613C3.85556 86.6257 3.55926 86.6184 3.46053 86.5969L3.28109 86.5577L3.13906 86.021C2.93733 85.2586 2.92593 85.3051 3.31473 85.3037C4.10319 85.3009 4.55986 84.8855 4.50482 84.2214C4.48337 83.9631 4.39545 83.8062 4.18349 83.6479C4.07093 83.5638 3.99665 83.5554 3.36596 83.5554C2.83231 83.5554 2.66364 83.5693 2.63484 83.6159C2.57101 83.7191 2.47151 85.7776 2.42476 87.9628L2.39381 89.4096H1.39075H0.387684V89.2767ZM7.58008 89.174C7.73086 87.8676 7.83367 86.0576 7.85969 84.2506C7.8723 83.3748 7.89374 82.5305 7.90729 82.3745L7.93196 82.091L10.2271 82.1081C12.3998 82.1243 12.5406 82.1304 12.8656 82.2206C13.5443 82.4089 14.0075 82.744 14.2369 83.2127C14.4097 83.5661 14.4383 84.235 14.2999 84.6905C14.1278 85.2572 13.7019 85.6923 13.014 86.0042C12.8524 86.0775 12.7101 86.164 12.6975 86.1966C12.6691 86.2705 12.84 86.7016 13.2863 87.6824C13.4772 88.1019 13.7306 88.662 13.8494 88.9273L14.0654 89.4095H12.903H11.7406L11.6909 89.2189C11.6005 88.8726 11.0309 87.2035 10.7085 86.3397C10.5341 85.8727 10.3914 85.4721 10.3914 85.4495C10.3914 85.4264 10.4844 85.4213 10.6045 85.4378C10.872 85.4746 11.3714 85.3969 11.657 85.274C12.2761 85.0077 12.4977 84.2458 12.0823 83.812C11.8632 83.5831 11.6182 83.5329 10.7227 83.5329C10.0244 83.5329 9.94661 83.5405 9.92566 83.6114C9.87138 83.7954 9.7198 87.6104 9.7189 88.8151L9.7185 89.4095H8.63568H7.55285L7.58008 89.174ZM26.7389 89.1964C26.8361 88.4304 26.9749 86.1856 27.0174 84.6931C27.0463 83.6807 27.0438 83.6309 26.9625 83.5891C26.9092 83.5616 26.4826 83.5564 25.8231 83.575C25.2433 83.5914 24.7535 83.5924 24.7348 83.5773C24.716 83.5622 24.7141 83.2229 24.7306 82.8233L24.7605 82.0968L28.174 82.1083L31.5876 82.1198L31.5732 82.7927C31.5652 83.1628 31.5503 83.4959 31.5401 83.5329C31.524 83.5913 31.3833 83.5965 30.4779 83.5725C29.904 83.5573 29.3894 83.5543 29.3346 83.5659C29.2642 83.5807 29.228 83.6284 29.2117 83.7281C29.1623 84.0286 29.0459 86.4255 28.9819 88.4562L28.9519 89.4095H27.8319H26.7119L26.7389 89.1964ZM32.1672 89.2413C32.2904 88.4661 32.464 85.5337 32.5012 83.6002L32.5297 82.1198L35.5018 82.1082L38.474 82.0967L38.4495 82.6241C38.436 82.9142 38.4142 83.2582 38.401 83.3884L38.3771 83.6253L37.9879 83.5962C37.4245 83.5542 34.7648 83.549 34.7234 83.5899C34.6812 83.6317 34.6002 84.8636 34.6339 84.9514C34.6535 85.0023 34.9332 85.0133 36.212 85.0133H37.7663L37.7399 85.2936C37.7254 85.4479 37.7005 85.7708 37.6845 86.0114L37.6554 86.4488H36.1666C34.978 86.4488 34.6608 86.4611 34.5937 86.5101C34.5222 86.5624 34.504 86.666 34.4703 87.2109C34.4486 87.5626 34.4427 87.8814 34.4572 87.9192C34.4806 87.9801 34.682 87.9845 36.2207 87.9571C37.176 87.94 38.0082 87.9217 38.0699 87.9164C38.197 87.9054 38.1901 87.8104 38.1359 88.8376L38.1057 89.4095H35.1231H32.1405L32.1672 89.2413ZM48.8077 89.0619C49.0408 86.3174 49.1429 83.6563 49.0179 83.5791C48.963 83.5452 47.7457 83.5556 47.053 83.5959L46.7726 83.6122L46.7731 83.0903C46.7735 82.8032 46.7862 82.4624 46.8018 82.3329L46.8301 82.0973H50.2332H53.6363V82.3595C53.6363 82.5037 53.6229 82.839 53.6068 83.1045L53.5771 83.5873L52.474 83.5713C51.8673 83.5625 51.348 83.5702 51.3201 83.5883C51.2922 83.6064 51.2564 83.768 51.2407 83.9472C51.1823 84.6101 51.0791 86.869 51.05 88.1198L51.02 89.4095H49.8991H48.7783L48.8078 89.0619H48.8077ZM54.2356 88.8847C54.2521 88.596 54.2949 87.9046 54.3308 87.3483C54.4267 85.8599 54.4882 84.4859 54.4885 83.8245C54.4885 83.5037 54.502 82.9839 54.518 82.6693L54.5472 82.0974H55.6681H56.7892L56.7609 82.445C56.6341 84.0041 56.5072 87.0207 56.5072 88.474V89.4095H55.3564H54.2057L54.2356 88.8847ZM67.9464 89.3751C67.9464 89.3562 67.9762 88.9777 68.0128 88.5339C68.1195 87.2357 68.2095 85.5598 68.2686 83.7684L68.3237 82.0974H69.6558H70.988L72.3001 84.4993C73.2509 86.2399 73.6315 86.8976 73.6821 86.8879C73.7214 86.8803 73.7653 86.806 73.7827 86.7177C73.8199 86.5287 73.91 84.6287 73.9506 83.174L73.98 82.1198L74.9557 82.1077L75.9314 82.0956V82.2647C75.9314 82.3577 75.9116 82.6962 75.8875 83.017C75.8038 84.1307 75.6205 87.3731 75.5947 88.1983C75.5804 88.6547 75.5582 89.114 75.5455 89.2189L75.5223 89.4095H74.2245C73.0362 89.4095 72.9228 89.4029 72.88 89.331C72.8543 89.2878 72.6258 88.8891 72.3723 88.445C72.1186 88.0009 71.6644 87.2174 71.3629 86.7038C71.0614 86.1903 70.6925 85.5392 70.543 85.2571C70.2035 84.6163 70.1204 84.5825 70.0814 85.0693C70.0548 85.3997 69.9917 86.9172 69.9375 88.5235L69.9076 89.4095H68.9271C68.3878 89.4095 67.9465 89.394 67.9465 89.3751H67.9464ZM75.9314 75.6376C75.9314 75.6376 0.703227 75.6241 0.686763 75.6077C0.6703 75.5912 0.656842 67.9217 0.656842 67.9217H2.27179C3.75328 67.9217 3.89253 67.9152 3.95668 67.8432C3.99512 67.8 4.19197 67.4974 4.39406 67.1707C4.89236 66.3651 5.71894 65.1872 6.24232 64.5369C6.6762 63.9977 8.54614 61.5644 11.277 57.9853L12.7488 56.0563H18.3079H23.8671L24.4182 57.9629C24.7213 59.0115 25.0086 60.0059 25.0565 60.1727L25.1436 60.4761L24.2189 61.6755C21.3612 65.3822 20.9227 65.9116 19.8153 66.9929C19.3091 67.4873 19.0486 67.7727 19.0583 67.8228C19.0719 67.8936 19.2658 67.9001 21.6888 67.9109C23.1275 67.9172 24.3312 67.9071 24.3638 67.8884C24.3964 67.8697 24.5783 67.5466 24.7683 67.1702C25.1295 66.4544 25.4926 65.9084 26.2468 64.9464C26.4949 64.63 26.7204 64.3424 26.7478 64.3072C26.7751 64.272 26.8098 64.2432 26.8247 64.2432C26.8519 64.2432 27.1579 65.1885 27.3633 65.9072C27.424 66.1191 27.5296 66.6308 27.598 67.0443C27.6695 67.475 27.7494 67.8229 27.7855 67.8589C27.838 67.9114 28.2883 67.9217 30.5133 67.9217H33.1781L33.24 67.8208C33.2741 67.7653 33.4511 67.4378 33.6336 67.0931C33.816 66.7483 34.1195 66.2594 34.3081 66.0065C34.7965 65.3517 35.653 64.3654 35.696 64.4085C35.7981 64.5114 36.2459 66.1771 36.3858 66.9751C36.4777 67.4987 36.5621 67.8602 36.5977 67.8828C36.6646 67.9252 43.3172 67.9366 43.427 67.8944C43.466 67.8795 43.498 67.8432 43.498 67.8137C43.498 67.7844 43.3242 67.4484 43.112 67.0671C42.2949 65.5999 42.3537 65.7566 40.7652 60.8058C40.3684 59.569 40.0438 58.5333 40.0438 58.5041C40.0438 58.4749 40.4289 57.9071 40.8997 57.2422L41.7556 56.0335L47.3472 56.0449L52.9389 56.0563L53.7594 58.703C54.9734 62.6189 55.6919 64.9765 55.8121 65.4381C55.9476 65.9584 56.0531 66.667 56.0893 67.3001C56.1085 67.6347 56.1382 67.8154 56.1811 67.8582C56.2346 67.9118 56.7871 67.9217 59.7367 67.9217C61.6574 67.9217 63.2608 67.9094 63.2999 67.8944C63.4031 67.8548 63.3893 67.8058 63.2092 67.5713C62.8804 67.1431 62.3429 65.898 61.6732 64.0127C61.282 62.9119 60.4505 60.3817 59.3323 56.8902C58.934 55.6464 58.5481 54.4662 58.4749 54.2675C58.2214 53.5801 54.8077 41.6666 54.7391 41.2302C54.7023 40.9958 54.6501 40.592 54.6232 40.333C54.5962 40.0739 54.5636 39.8266 54.5508 39.7835C54.5288 39.7098 54.3554 39.705 51.7296 39.705H48.9317L48.735 40.1199C48.4762 40.6656 47.7809 41.8611 47.4108 42.3965C46.4186 43.832 38.634 54.1031 38.5807 54.0471C38.5417 54.006 37.7559 51.2088 37.7718 51.1675C37.7902 51.1193 39.4559 48.9957 43.3139 44.1012C45.1215 41.8079 45.9795 40.8204 46.724 40.176C46.9235 40.0033 47.0867 39.8267 47.0867 39.7835C47.0867 39.7095 46.9209 39.705 44.2166 39.705H41.3464L41.3241 39.8059C41.3119 39.8614 41.2806 40.0318 41.2545 40.1845C41.1493 40.801 40.9572 41.2013 40.4403 41.8807C39.6068 42.9761 36.0619 47.4373 36.0101 47.456C35.9907 47.463 35.8893 47.1602 35.7847 46.7831C35.476 45.6698 34.6891 42.8904 34.4202 41.9637C34.1826 41.1447 34.1071 40.7118 34.0657 39.9292L34.0551 39.7274L30.6483 39.7158C28.5623 39.7088 27.2251 39.7207 27.1992 39.7466C27.1728 39.773 27.2332 39.9371 27.3603 40.1842C27.8966 41.2275 28.1488 41.9338 29.8165 47.0641C30.7329 49.8829 31.4737 52.2233 31.4628 52.2649C31.4306 52.388 29.7117 54.5571 29.6757 54.5201C29.5863 54.4282 25.9698 42.5962 25.8883 42.129C25.8518 41.9202 25.7808 41.3347 25.7304 40.828C25.68 40.3213 25.6294 39.8613 25.618 39.8059L25.5973 39.7049H22.6452H19.6931L19.083 40.9273C18.7475 41.5997 18.3207 42.4049 18.1347 42.7167C17.7102 43.4282 15.0085 47.0488 11.1098 52.1311C10.3054 53.1797 9.19481 54.6331 8.64191 55.361C6.53736 58.1314 4.57143 60.6518 2.36393 63.4095C1.53609 64.4437 0.814075 65.342 0.759436 65.4058L0.660117 65.5217L0.656842 0.331299H71.5551C71.5551 0.331299 63.8592 10.382 48.3963 30.3877C45.4061 34.2564 42.9596 37.4587 42.9596 37.5039C42.9596 37.5513 43.0024 37.5976 43.0605 37.6132C43.193 37.6487 47.1683 37.6484 47.301 37.6128C47.4088 37.5839 47.4741 37.5003 53.48 29.7013C55.3516 27.271 57.3495 24.677 57.92 23.9368C60.3302 20.8094 75.8699 0.354716 75.8917 0.331299L75.9314 75.6376ZM31.6603 60.6027C31.2546 59.3464 31.0761 58.7327 31.1016 58.682C31.1656 58.5544 32.8801 56.348 32.9152 56.348C32.9335 56.348 33.0136 56.5448 33.0931 56.7853C33.3705 57.6235 33.9311 59.1993 34.067 59.5228L34.204 59.8487L33.9554 60.1955C33.2088 61.2375 32.3113 62.4488 32.2857 62.4488C32.2696 62.4488 31.9882 61.6181 31.6603 60.6027ZM15.5827 52.5236C15.6066 52.4928 16.0292 51.9629 16.5219 51.3461C17.7283 49.8354 18.9563 48.2331 19.6222 47.3007C20.1869 46.51 20.8437 45.51 20.8437 45.4411C20.8437 45.4196 20.8639 45.4021 20.8886 45.4021C20.9158 45.4021 20.9334 45.602 20.9334 45.9122C20.9334 46.1927 20.9643 46.6014 21.0019 46.8206C21.0776 47.2606 21.4925 48.6607 22.2382 50.9932C22.5075 51.8354 22.7278 52.5369 22.7278 52.5521C22.7278 52.5673 21.1104 52.5797 19.1336 52.5797C16.2649 52.5797 15.548 52.5684 15.5827 52.5236ZM44.5601 52.4788C46.8638 49.6405 48.7715 47.1078 49.5489 45.8555L49.8559 45.3611L49.8798 46.0209C49.8929 46.3837 49.9346 46.8219 49.9725 46.9946C50.0648 47.4155 50.5128 48.896 51.1261 50.8077C51.4032 51.6712 51.6394 52.4232 51.6513 52.4787L51.6728 52.5797H48.0755H44.4783L44.5601 52.4788Z" fill="#103083"/>
</svg>
