<svg width="200" height="128" viewBox="0 0 200 128" fill="none" xmlns="http://www.w3.org/2000/svg">
<path fill-rule="evenodd" clip-rule="evenodd" d="M71.1148 43.6515C65.549 46.9093 63.8402 47.1642 57.8405 50.7808C61.331 46.9718 62.55 45.3689 64.7369 42.1727C59.1663 42.4691 51.0979 43.1329 45.3117 44.4126C50.3475 41.7417 60.3016 38.7418 65.5557 38.0424C64.3367 36.3663 54.4836 31.0093 52.0235 30C59.8224 30.6042 69.3657 33.4983 73.9791 36.3461C75.8437 35.7852 77.7063 35.74 81.0776 35.4456C80.2203 36.9282 80.2069 37.7893 76.8731 39.9791C77.7968 42.4383 75.6012 55.9791 73.7953 59.5823C73.7164 53.9106 73.2103 46.7486 71.1148 43.6515ZM30.5066 92.2183C27.3008 91.0378 25.0004 89.6591 22.4845 87.299C23.2417 85.2247 24.1037 83.5766 25.5209 81.5042C22.9107 81.8765 21.024 82.1603 18.789 82.6C16.959 79.4058 16.1528 76.3482 15.2205 72.0937C14.7163 76.5983 14.5335 79.8243 15.181 83.4246C13.1346 83.9845 11.6799 84.4877 10 85.242C12.3485 86.6987 14.2593 87.8243 16.9157 89.0433C18.3185 92.0759 19.7848 94.1455 22.1564 96.4661C21.5916 94.4851 21.4617 92.888 21.6638 90.8136C24.6319 91.6786 27.1459 92.1087 30.5066 92.2183ZM38.802 47.1767C37.7928 48.4669 36.6517 50.8684 36.3448 51.9873C44.544 53.1188 51.1557 57.3232 51.1557 57.3232C43.9398 56.0523 40.174 56.2081 37.4974 56.4439C34.8256 56.7075 34.2839 57.0288 34.2839 57.0288C32.3491 61.2323 31.1974 68.5435 31.1974 68.5473C29.8861 65.4031 27.9907 59.0945 27.9907 59.0897C24.3693 61.038 16.045 68.8706 16.0383 68.8744C20.618 59.6939 25.2563 55.4904 25.2611 55.4904C23.6621 53.8923 19.474 53.0909 16.4135 52.9523C18.0087 52.2971 22.0939 51.5293 25.2304 51.3975C28.3611 51.2984 30.2555 51.4909 30.2603 51.4909C33.0736 49.2732 37.3156 47.4067 38.802 47.1767ZM47.5025 86.537C46.0429 88.4892 44.8114 90.0468 43.196 91.8479C40.4299 92.5955 38.2305 92.8793 35.5424 92.8947C37.1914 93.75 38.7953 94.2763 40.5088 94.614C38.7953 96.1852 37.3271 97.307 35.6569 98.3644C38.4614 97.688 42.1723 96.4911 44.9144 94.8882C46.3335 94.9277 47.6824 94.8372 48.6657 94.6631C48.428 93.8078 48.25 93.1958 48.0422 92.1C50.6371 90.0911 52.5257 88.2833 54.6558 86.1127C52.3727 87.7079 50.3879 88.9144 47.7651 90.1604C47.6413 88.9555 47.5537 87.7472 47.5025 86.537Z" fill="#37A094"/>
<path fill-rule="evenodd" clip-rule="evenodd" d="M43.8733 68.7274C43.984 69.9262 44.06 72.9165 44.06 74.0133C44.06 75.0187 44.0455 78.3919 43.856 79.8476L43.8329 79.9659L50.4273 79.9679C53.6494 79.9679 57.0861 79.1481 57.0861 76.8544C57.0861 75.4151 55.7863 74.3491 53.3444 73.7631C55.1359 73.3831 56.3568 72.3892 56.3568 71.2433C56.3568 69.3759 53.6581 68.6591 51.1383 68.6167L43.8647 68.609L43.8733 68.7274ZM48.9668 69.881C51.7194 69.8906 52.7412 70.3447 52.7412 71.5445C52.7412 71.8677 52.6199 72.1496 52.3756 72.3863C51.8474 72.8876 50.7967 73.1454 49.495 73.0964H49.4305L48.6705 74.6935H49.4401C50.9574 74.6502 52.2736 75.037 52.949 75.697C53.2626 76.0029 53.4185 76.3474 53.4185 76.7226C53.4185 77.9888 52.0369 78.6334 49.3266 78.6334C48.8686 78.6334 48.1336 78.6315 47.6612 78.6074C47.5631 76.9478 47.5563 74.6839 47.5563 74.0133C47.5563 73.2243 47.6006 71.4617 47.665 69.9541C48.0968 69.9003 48.5317 69.8759 48.9668 69.881ZM72.2857 68.609H69.0914L69.2271 71.4694C69.2829 72.8934 69.3416 74.3442 69.4609 75.7518C69.2435 75.3218 69.0606 75.0832 68.1062 73.9556C68.0754 73.9142 64.7532 69.8069 63.5968 68.6446L63.5631 68.609H59.8339L59.8397 68.7216C59.9503 69.9185 60.0273 72.9107 60.0273 74.0133C60.0273 75.0148 60.0129 78.3919 59.8195 79.8457L59.8051 79.9602H63.1147L63.108 79.8534C62.9137 77.068 62.9137 74.2759 62.9137 71.5791V71.5714C63.0272 71.8928 63.1831 72.192 63.7036 72.8097C63.7613 72.877 69.4484 79.5243 69.7399 79.9207L69.7678 79.9602H72.4309L72.4175 79.8457C72.2174 78.3871 72.2049 75.0148 72.2049 74.0133C72.2049 72.9107 72.2847 69.9108 72.3915 68.7216L72.4069 68.609H72.2857ZM76.1399 68.7197C76.2458 69.9243 76.3266 72.9116 76.3266 74.0133C76.3266 75.0148 76.3121 78.388 76.1139 79.8428L76.1024 79.9592H80.049L80.0375 79.8428C79.896 78.8037 79.8489 76.8102 79.8335 75.2727C79.9942 75.2804 80.5589 75.3025 80.5589 75.3025L81.1102 75.3227C86.3153 75.3227 88.8428 74.2047 88.8428 71.9005C88.8428 69.2739 85.2993 68.6648 82.3292 68.6081H76.1303L76.1399 68.7197ZM80.9746 69.9781C82.8228 69.9502 84.1255 70.2543 84.7509 70.8729C85.0289 71.149 85.1713 71.4944 85.1713 71.9005C85.1713 73.5486 82.8728 73.8882 80.9457 73.8882L80.1664 73.8709C80.1664 73.8709 79.9711 73.8516 79.8518 73.8353C79.8373 73.4591 79.8325 72.9655 79.8325 72.3998C79.8325 71.6744 79.8422 70.846 79.8806 70.0493C80.2441 70.0103 80.6091 69.9866 80.9746 69.9781ZM96.3819 68.7197C96.4964 69.9243 96.5724 72.9116 96.5724 74.0133C96.5724 75.0148 96.559 78.388 96.3666 79.8428L96.3502 79.9592H100.298L100.279 79.8428C100.146 78.8037 100.095 76.8102 100.078 75.2727L100.797 75.3025L101.355 75.3227C106.558 75.3227 109.088 74.2047 109.088 71.9005C109.088 69.2739 105.545 68.6648 102.571 68.6081H96.3752L96.3819 68.7197ZM101.22 69.9781C103.068 69.9502 104.369 70.2543 104.992 70.8729C105.274 71.149 105.42 71.4944 105.42 71.9005C105.42 73.5486 103.118 73.8882 101.187 73.8882L100.409 73.8709C100.409 73.8709 100.216 73.8516 100.097 73.8353C100.084 73.4591 100.077 72.9578 100.077 72.3979C100.077 71.6705 100.09 70.846 100.126 70.0493C100.365 70.0195 100.796 69.9897 101.22 69.9781ZM114.378 68.6158H114.315L114.285 68.6793C113.55 70.2899 108.826 78.5468 108.09 79.8072L108 79.9669H111.386L111.408 79.8976C111.706 79.127 112.083 78.2457 112.528 77.2989L115.33 77.2652L117.634 77.2874C117.634 77.2874 118.04 77.297 118.137 77.297C118.75 78.5199 119.2 79.4445 119.399 79.9015L119.423 79.9669H123.344L117.027 68.6148H114.378V68.6158ZM115.339 71.9591C115.652 72.495 116.462 74.0133 117.377 75.8038L117.075 75.8134L115.339 75.8326C115.339 75.8326 113.542 75.8086 113.262 75.8009C113.925 74.5046 114.617 73.2237 115.339 71.9591ZM124.908 68.7216C125.013 69.9185 125.099 72.9116 125.099 74.0133C125.099 75.0148 125.077 78.388 124.883 79.8428L124.869 79.9611H128.816L128.804 79.8466C128.603 78.3832 128.592 75.0158 128.592 74.0142C128.592 73.2253 128.637 71.4627 128.7 70.0493C129.057 70.0176 129.415 69.9965 129.773 69.9858C131.617 69.9541 132.92 70.262 133.539 70.8787C133.827 71.151 133.973 71.5041 133.973 71.9024C133.973 73.2138 132.429 73.8757 131 73.9373C130.719 73.949 130.437 73.9378 130.158 73.9036L129.888 73.8661L130.065 74.0729C131.444 75.7095 133.551 78.5622 134.432 79.9226L134.467 79.9698H138.696L138.57 79.7966C138.426 79.6148 135.652 76.3657 134.477 74.9764C134.477 74.9764 134.432 74.9254 134.406 74.8898C136.551 74.3673 137.61 73.3937 137.61 71.9024C137.61 69.2787 134.061 68.6668 131.091 68.6177L124.896 68.61L124.908 68.7216ZM144.31 68.6052H140.523L140.536 68.7178C140.645 69.9185 140.72 72.9116 140.72 74.0114C140.72 75.0072 140.709 78.3823 140.513 79.8389L140.5 79.9592H144.448L144.428 79.8389C144.237 78.3823 144.221 75.0081 144.221 74.0114C144.221 72.9097 144.302 69.9108 144.409 68.7178L144.419 68.6052H144.31ZM148.001 68.7274C148.109 69.9243 148.19 72.9145 148.19 74.0133C148.19 75.0187 148.177 78.3919 147.983 79.8476L147.966 79.9659L154.556 79.9679C157.776 79.9679 161.222 79.1481 161.222 76.8544C161.222 75.4151 159.915 74.3491 157.472 73.7631C159.262 73.3831 160.484 72.3892 160.484 71.2433C160.484 69.3759 157.789 68.6591 155.266 68.6167L147.993 68.609L148.001 68.7274ZM153.094 69.881C155.851 69.8906 156.875 70.3447 156.875 71.5445C156.875 71.8677 156.751 72.1496 156.501 72.3863C155.982 72.8876 154.93 73.1454 153.626 73.0964H153.559L152.802 74.6935H153.572C155.09 74.6502 156.402 75.037 157.079 75.697C157.391 76.0029 157.547 76.3474 157.547 76.7226C157.547 77.9888 156.175 78.6334 153.46 78.6334C152.999 78.6334 152.261 78.6315 151.793 78.6074C151.695 76.9478 151.693 74.6839 151.693 74.0133C151.693 73.2147 151.731 71.4617 151.806 69.9541C152.233 69.8999 152.663 69.8755 153.094 69.881ZM171.044 68.6052H168.387L168.361 68.6648C167.58 70.3784 162.581 79.0827 162.166 79.8004L162.075 79.9582H165.463L165.487 79.887C165.827 79.0072 166.2 78.1403 166.605 77.2883C166.725 77.2883 169.399 77.2527 169.399 77.2527L171.706 77.2806C171.706 77.2806 172.11 77.2883 172.213 77.2883C172.826 78.5064 173.275 79.4329 173.471 79.8909L173.501 79.9582H177.418L171.103 68.6042H171.044V68.6052ZM169.414 71.9495C169.73 72.4854 170.534 74.0037 171.453 75.7903L171.156 75.7999L169.411 75.824L167.338 75.7903C168 74.4937 168.692 73.2131 169.414 71.9495ZM178.405 71.5512C178.405 73.5447 180.915 74.3548 183.132 75.0706C184.854 75.6248 186.626 76.206 186.626 77.1527C186.626 77.4442 186.539 77.6751 186.346 77.8541C185.944 78.2447 185.094 78.4102 183.762 78.3592C182.461 78.3043 180.966 77.9705 179.32 77.3557L178.624 77.0978L178.626 77.5375V79.5782L179.077 79.6571L179.355 79.7023C180.184 79.8659 181.76 80.1593 183.35 80.1593C187.514 80.1593 190 78.8422 190 76.6399C190 74.5954 187.433 73.7737 185.169 73.054C183.499 72.5181 181.77 71.9717 181.77 71.0961C181.77 70.846 181.77 70.0849 183.909 70.0849C185.512 70.0849 187.079 70.6054 187.923 70.8854L188.743 71.1462L188.731 70.7219V68.6581L187.925 68.5436C187.122 68.4195 185.782 68.2126 184.39 68.2126C180.81 68.2136 178.405 69.5558 178.405 71.5512Z" fill="black"/>
</svg>
