<svg width="170" height="35" viewBox="0 0 170 35" fill="none" xmlns="http://www.w3.org/2000/svg">
<g clip-path="url(#clip0)">
<path d="M19.5022 26.322L19.9061 26.2798L20.331 26.2161L21.3295 26.0886L22.434 25.8546L23.56 25.6L24.665 25.2813L25.8122 24.9411L26.9591 24.5377L27.8305 24.2612L28.1916 24.0916L28.5315 23.8791L28.8287 23.6029L29.1048 23.3055L29.3176 22.9444L34.82 11.3872L43.6363 33.354L43.7428 33.6092L43.8915 33.8426L44.0827 34.0554L44.2949 34.2253L44.5501 34.3741L44.8047 34.4587L45.0809 34.5228H45.3571L52.8565 34.544L39.1327 5.12H31.0169L19.5022 26.322Z" fill="#29756E"/>
<path d="M57.9556 6.88334V1.57214L44.5501 8.88035L44.4224 8.94408L44.1462 9.05001L43.849 9.13528H43.5729L43.3392 9.09279L43.0839 9.00781L42.8718 8.92283L42.7868 8.88035L42.8927 9.22026L43.1055 9.90009L43.3817 10.6012L43.7428 11.3022L44.1677 11.9396L44.6136 12.4707L45.0385 12.8531L45.4209 13.0656L45.782 13.1505H46.1435L46.4831 13.1081L46.7383 13.0231L46.9505 12.9381L47.0355 12.8744L57.9556 6.88334Z" fill="#B01E24"/>
<path d="M84.8299 25.1113H84.6812L84.5537 25.1326L84.4266 25.1538L84.3416 25.1966L84.2354 25.2597L84.1504 25.3238L84.0654 25.4085L84.0017 25.5147L82.9819 27.2355H87.5917V30.2738L87.2306 30.3797L86.9119 30.465L86.6145 30.5284L86.2958 30.5925L85.9987 30.6562L85.5947 30.6984L85.2761 30.7412L85.0002 30.7624H84.0864L83.768 30.7196L83.3218 30.6772L83.0454 30.635L82.7692 30.5709L82.493 30.5078L82.2168 30.4225L81.9622 30.3163L81.6435 30.1463L81.3886 29.9976L81.1761 29.8277L80.9634 29.6577L80.7512 29.4662L80.56 29.275L80.3688 29.0629L80.2198 28.8289L80.0286 28.5102L79.9014 28.2555L79.7949 27.9794L79.7099 27.7029L79.6462 27.4267L79.5828 27.1293L79.5403 26.8534L79.5187 26.556V25.7059L79.5612 25.43L79.6252 25.1751L79.7099 24.8986L79.7949 24.6439L79.9014 24.389L80.0286 24.1338L80.1351 23.9851L80.3048 23.7517L80.496 23.5389L80.6875 23.3265L80.8999 23.1356L81.1124 22.9656L81.4098 22.7744L81.6644 22.6257L81.9406 22.477L82.2384 22.3707L82.5145 22.2642L82.9179 22.1583L83.2366 22.0943L83.5555 22.0521L83.8527 22.0096L84.1713 21.9883L84.49 21.9668L84.809 21.9456H85.1061L85.4248 21.9668L85.7434 21.9883L86.0621 22.0308L86.3808 22.0736L86.6995 22.1155L87.0181 22.1795L87.3368 22.222L87.6555 22.2855L87.9741 22.3707L88.2928 22.4342L88.6115 22.5195L88.9089 22.6041L89.2276 22.6894L89.3763 22.7316V20.5222L89.0151 20.4159L88.7177 20.31L88.399 20.2247L88.0804 20.1613L87.7829 20.0973L87.4643 20.0338L87.1456 19.9701L86.572 19.8854L86.2533 19.8426L85.9346 19.8001L85.616 19.7786L85.2973 19.7573L85.0002 19.7361H83.3853L83.0669 19.7573L82.7482 19.7786L82.4296 19.8214L82.1318 19.8639L81.8344 19.9061L81.5157 19.9913L81.2186 20.076L80.8147 20.1825L80.5175 20.2675L80.2413 20.3734L79.9439 20.5012L79.689 20.6287L79.4125 20.7561L79.1579 20.9261L78.9026 21.0748L78.6055 21.2876L78.3718 21.4782L78.1381 21.6694L77.9254 21.8821L77.7132 22.1155L77.5005 22.3283L77.3308 22.5617L77.1609 22.8169L76.9906 23.0715L76.8422 23.3265L76.651 23.6876L76.5448 23.9432L76.4382 24.2403L76.3323 24.5165L76.2686 24.8139L76.1836 25.1113L76.1411 25.4085L76.0986 25.7059L76.0774 26.0886V26.6834L76.1196 26.9806L76.1621 27.2995L76.2045 27.5967L76.2895 27.8941L76.3533 28.1915L76.4598 28.468L76.566 28.7442L76.7144 29.0629L76.8422 29.339L76.9906 29.5937L77.1393 29.8489L77.3096 30.1035L77.5005 30.3375L77.6707 30.5709L77.8829 30.7837L78.1381 31.0171L78.3928 31.2086L78.648 31.3785L78.9242 31.5485L79.2003 31.6972L79.4762 31.8459L79.7527 31.9946L80.0501 32.1006L80.3263 32.228L80.6235 32.3345L80.9634 32.4405L81.282 32.5045L81.6007 32.5679L81.9197 32.6107L82.2384 32.6532L82.557 32.696L82.8969 32.7167L83.1941 32.7591L83.5343 32.7807H83.8527L84.405 32.8019L84.7237 32.7807H85.0211L85.3398 32.7591L85.6797 32.7379L85.9987 32.7167L86.3171 32.6745L86.6357 32.632L86.9547 32.5892L87.2943 32.5679L87.5917 32.5045L87.9107 32.462L88.2291 32.398L88.5478 32.3345L88.8664 32.2918L89.1851 32.2071L89.5038 32.1218L89.8224 32.0584L90.1411 31.9731L90.4173 31.8884V25.1113H84.8299ZM97.4918 4.8863L97.7255 4.90754L98.0017 4.97128L98.2141 5.03501L98.3841 5.09875L98.5753 5.20497L98.724 5.31119L98.8727 5.43866L99.0214 5.58738L99.1701 5.77858L99.2554 5.96978L99.3401 6.13974L99.3826 6.33094L99.4251 6.54339V6.84082L99.4038 7.03202L99.3613 7.20198L99.2979 7.39318L99.1914 7.56314L99.0639 7.7331L98.9364 7.90306L98.724 8.09426L98.5331 8.22173L98.3204 8.32795L98.1079 8.39169L97.8955 8.47666L97.683 8.51915L97.4493 8.5404H95.3461L95.2399 8.56164L95.1124 8.60413L95.0274 8.62538L94.9215 8.68911L94.8362 8.77409L94.7725 8.85907L94.73 8.90156L93.774 10.6436L96.791 10.6224L99.85 15.19H103.462L99.9562 9.85758L100.254 9.7726L100.509 9.66637L100.764 9.5389L101.103 9.36895L101.337 9.22023L101.55 9.07152L101.762 8.90156L101.953 8.71036L102.123 8.49791L102.336 8.22173L102.484 8.00928L102.612 7.77559L102.697 7.54189L102.782 7.32945L102.845 7.09575L102.867 6.81957L102.888 6.56463V6.37343L102.867 6.11849L102.824 5.86356L102.761 5.60862L102.676 5.35368L102.591 5.09875L102.463 4.84381L102.314 4.61012L102.144 4.37642L101.975 4.16398L101.783 3.97277L101.592 3.78157L101.38 3.61161L101.146 3.44165L100.912 3.31418L100.657 3.18672L100.402 3.08049L100.147 2.99551L99.8925 2.91053L99.6163 2.8468L99.3401 2.82555L99.0639 2.80431L98.7877 2.78307L98.554 2.80431H89.589V15.19H92.818V4.8863L97.3006 4.86505L97.4918 4.8863ZM112.831 2.0395L114.594 0H111.577L110.579 2.0395H112.831ZM145.972 15.2325H149.223V5.03501H152.856L152.962 5.01377L153.089 4.99252L153.174 4.97128L153.259 4.92879L153.323 4.8863L153.366 4.82256L153.429 4.75883L153.451 4.6951L153.493 4.61012L153.514 4.56763L153.536 4.54638L154.13 2.86804H142.446L142.34 2.91053L142.255 2.93178L142.17 2.99551L142.085 3.05925L142.021 3.12298L141.957 3.20796L141.915 3.29294L141.893 3.33543L141.065 5.03501H145.972V15.2325ZM103.462 27.0021L103.717 26.9168L103.971 26.8321L104.205 26.7047L104.524 26.5347L104.736 26.4073L104.927 26.2373L105.119 26.0673L105.289 25.8758L105.437 25.664L105.586 25.4512L105.714 25.2173L105.799 24.9626L105.883 24.7077L105.947 24.4524L105.99 24.1766L106.011 23.9004V23.6664L105.99 23.3902L105.947 23.1356L105.905 22.8803L105.82 22.6257L105.735 22.3917L105.607 22.1368L105.501 21.9668L105.352 21.7334L105.182 21.521L104.991 21.3295L104.8 21.1383L104.481 20.9049L104.226 20.7561L103.971 20.6287L103.695 20.5012L103.249 20.3528L102.952 20.2675L102.633 20.2035L102.336 20.14L102.038 20.0973L101.72 20.0548L101.401 20.0338L101.082 20.0126H93.1579V32.4192H96.4083V22.2642H100.742L100.891 22.2855L101.103 22.307L101.316 22.3495L101.507 22.4129L101.762 22.541L101.932 22.6257L102.059 22.7316L102.187 22.8381L102.314 23.029L102.4 23.199L102.484 23.3902L102.548 23.5817L102.591 23.7517L102.612 23.9216V24.0278L102.591 24.1978L102.569 24.389L102.506 24.5377L102.421 24.7292L102.314 24.9198L102.187 25.0685L101.975 25.3025L101.783 25.4085L101.592 25.5359L101.401 25.6212L101.167 25.7059L100.955 25.7487L100.742 25.7912H98.6603L98.5753 25.8124L98.4903 25.8546L98.3841 25.8974L98.2991 25.9399L98.2141 26.0033L98.1291 26.0673L98.0657 26.1314L98.0017 26.1945L97.9592 26.2798L97.1097 27.8728H99.935L103.185 32.4192H106.712L103.164 27.0868L103.462 27.0021ZM65.6037 19.9913L59.2937 32.4192H62.7781L64.0741 29.6149H67.8556L68.0041 29.5724L68.1528 29.5302L68.2802 29.4662L68.408 29.3815L68.5139 29.275L68.6202 29.1688L68.7051 29.0416L68.7267 28.9988L69.7039 27.3848H65.0938L67.6854 21.9456L72.3595 32.3773H75.7162L69.9801 19.9913H65.6037ZM139.62 2.82555H136.455V15.2325H139.62V2.82555ZM76.3748 13.4267L76.6085 13.6391L76.8422 13.8303L77.0759 14.0216L77.3308 14.1915L77.5857 14.3612L77.8404 14.5314L78.1166 14.6801L78.3928 14.8076L78.6055 14.8926L78.9026 14.9776L79.2003 15.0838L79.4978 15.1688L79.8165 15.2537L80.1136 15.3175L80.4325 15.36L80.7297 15.4237L81.1124 15.4662L81.4308 15.4874L81.7494 15.5087H82.0681L82.3871 15.5299H82.7057L83.0244 15.5087L83.4918 15.4874L83.8105 15.4662L84.1288 15.445L84.4266 15.4025L84.7449 15.36L85.0427 15.2962L85.3398 15.2325L85.6585 15.1688L85.9559 15.105L86.2746 14.9988L86.572 14.9351L86.8694 14.8289L87.1668 14.7226L87.4005 14.6589V12.322L87.2731 12.3857L86.9759 12.4919L86.6782 12.6194L86.3808 12.7044L86.0834 12.8106L85.7859 12.8956L85.4673 12.9593L85.0211 13.0443L84.7449 13.0868L84.4266 13.1293L84.1288 13.1718L83.8317 13.193L83.5127 13.2142H82.8754L82.5783 13.2355L82.3018 13.2142L82.0047 13.193L81.7285 13.1505L81.4308 13.0868L81.1549 13.0018L80.8362 12.9168L80.581 12.8318L80.3263 12.7256L80.0926 12.5982L79.8589 12.4494L79.6462 12.3007L79.4338 12.1308L79.1579 11.8758L78.9879 11.6634L78.8176 11.4509L78.648 11.2172L78.5205 10.9835L78.4143 10.7286L78.3078 10.4737L78.2016 10.07L78.1381 9.79384L78.0956 9.49641V8.64662L78.1381 8.37044L78.2016 7.96679L78.2656 7.71185L78.3503 7.43567L78.4352 7.18073L78.563 6.94704L78.6905 6.71335L78.9026 6.41592L79.0938 6.20347L79.285 6.01227L79.5187 5.82107L79.7315 5.65111L79.9652 5.48115L80.3473 5.2687L80.6025 5.14123L80.8999 5.03501L81.1761 4.95003L81.4732 4.86505L81.8772 4.78007L82.1743 4.75883L82.493 4.71634H83.4278L83.8742 4.73758L84.1929 4.75883L84.5115 4.80132L84.8299 4.84381L85.1061 4.8863L85.4248 4.95003L85.7222 5.01377L86.0412 5.09875L86.3383 5.16248L86.6357 5.2687L86.9334 5.35368L87.0819 5.41742L87.4433 5.52364L87.4643 3.20796L87.2731 3.16547L86.9759 3.08049L86.6782 2.97427L86.3595 2.88929L86.0621 2.82555L85.7434 2.74058L85.446 2.67684L85.1276 2.61311L84.7665 2.54937L84.4475 2.50688L84.1504 2.46439L83.8317 2.4219L83.5127 2.40066L83.1941 2.37941H81.9622L81.6644 2.40066L81.3461 2.4219L81.0274 2.46439L80.7297 2.50688L80.4325 2.57062L80.1351 2.63435L79.8374 2.71933L79.5403 2.80431L79.2003 2.91053L78.9242 3.01676L78.648 3.12298L78.3503 3.25045L78.0956 3.39916L77.8194 3.54788L77.5642 3.69659L77.3096 3.86655L77.0759 4.05775L76.8422 4.24895L76.6294 4.44016L76.4173 4.65261L76.2045 4.86505L76.0133 5.09875L75.8224 5.33244L75.6522 5.58738L75.4825 5.82107L75.355 6.09725L75.2063 6.35219L75.0361 6.75584L74.9301 7.03202L74.8449 7.3082L74.7599 7.60563L74.6965 7.90306L74.6327 8.20048L74.6115 8.62538L74.5902 8.9228V9.51766L74.6327 9.81509L74.6752 10.1125L74.7174 10.4099L74.8024 10.6861L74.8877 10.9835L75.0361 11.4084L75.1638 11.6846L75.2913 11.9396L75.44 12.2157L75.5887 12.4707L75.7587 12.7044L75.9284 12.9381L76.1196 13.193L76.3748 13.4267ZM109.07 32.4192H112.342V20.0338H109.091L109.07 32.4192ZM148.139 20.0338H145.101V32.4192H154.768L155.702 30.2098H148.139V20.0338ZM118.588 13.0655H108.667V4.92879H118.12L117.334 2.80431H105.523V15.19H117.526L118.588 13.0655ZM164.052 30.1676H160.036V22.1583H169.49L168.747 19.9913H156.786V32.398H169.002L169.979 30.1676H164.052Z" fill="black"/>
<path d="M162.331 25.0052L162.246 25.0264H162.14L162.012 25.0474L161.906 25.0898L161.821 25.1539L161.715 25.2173L161.63 25.3026L161.609 25.3451L160.377 27.1721H165.794L165.879 27.1509L165.985 27.1293L166.091 27.0869L166.197 27.0447L166.282 26.9806L166.367 26.8959L166.41 26.8322L167.727 25.0052H162.331ZM143.912 25.8125L143.89 25.5144L143.848 25.281L143.805 24.9836L143.741 24.7074L143.656 24.41L143.572 24.1332L143.444 23.8571L143.338 23.5809L143.189 23.3256L143.04 23.071L142.849 22.8164L142.658 22.5824L142.467 22.349L142.255 22.115L142.042 21.9028L141.809 21.6901L141.575 21.4989L141.298 21.3077L141.043 21.1377L140.767 20.9684L140.491 20.8196L140.193 20.6916L139.917 20.5429L139.641 20.4369L139.343 20.331L139.046 20.2245L138.748 20.1398L138.451 20.0545L138.132 19.9911L137.835 19.9271L137.516 19.8636L137.197 19.8424L136.9 19.8211L136.602 19.7999H136.326L136.22 19.7787H136.071L135.816 19.7999H135.562L135.264 19.8211L134.967 19.8424L134.648 19.8636L134.35 19.9058L134.032 19.9699L133.734 20.0339L133.437 20.0973L133.139 20.1826L132.842 20.2673L132.566 20.3732L132.289 20.5013L131.992 20.6287L131.737 20.7562L131.439 20.9474L131.206 21.0961L130.951 21.2873L130.718 21.4779L130.484 21.6691L130.271 21.8819L130.058 22.1153L129.867 22.328L129.655 22.6042L129.485 22.8382L129.315 23.0928L129.166 23.3475L129.039 23.6243L128.934 23.9004L128.807 24.1766L128.722 24.474L128.616 24.878L128.573 25.1754L128.531 25.4941L128.488 25.7915V26.641L128.531 26.9597L128.551 27.2571L128.616 27.5545L128.679 27.8526L128.743 28.1287L128.849 28.4474L128.955 28.7448L129.083 29.021L129.21 29.2757L129.359 29.5524L129.529 29.8071L129.784 30.1898L129.975 30.4232L130.187 30.6359L130.4 30.8693L130.613 31.0821L130.846 31.2733L131.123 31.4854L131.377 31.6554L131.632 31.8041L131.908 31.974L132.185 32.1015L132.482 32.2502L132.759 32.3567L133.057 32.4842L133.46 32.5901L133.757 32.6754L134.076 32.7388L134.395 32.8029L134.692 32.8457L135.011 32.8879L135.308 32.9091L135.627 32.9519H135.946L136.222 32.9731H136.562L136.88 32.9519L137.199 32.9306L137.518 32.9094L137.815 32.8666L138.325 32.7819L138.622 32.7179L138.92 32.6545L139.218 32.5692L139.515 32.4845L139.812 32.357L140.089 32.2505L140.365 32.123L140.769 31.9109L141.045 31.7616L141.3 31.6129L141.533 31.4435L141.767 31.2523L142.001 31.0611L142.214 30.8484L142.426 30.6362L142.703 30.2963L142.872 30.0416L143.042 29.7864L143.191 29.5102L143.318 29.2556L143.446 28.9788L143.552 28.6814L143.658 28.4052L143.722 28.1078L143.807 27.8104L143.85 27.5129L143.892 27.2155L143.935 26.8968L143.956 26.5994V26.4294L143.935 26.132L143.912 25.8125ZM140.428 26.3433V26.5985L140.407 26.8959L140.364 27.1934L140.321 27.4268L140.258 27.7242L140.194 28.0216L140.088 28.2984L139.981 28.5746L139.875 28.8508L139.727 29.1269L139.578 29.3609L139.387 29.5731L139.196 29.7643L139.005 29.9555L138.792 30.1467L138.537 30.2954L138.304 30.4441L138.049 30.55L137.794 30.6353L137.539 30.72L137.284 30.784L136.881 30.8475L136.583 30.8687H136.031L135.733 30.8259L135.457 30.7837L135.181 30.7197L134.904 30.635L134.628 30.5498L134.352 30.4438L134.033 30.2739L133.8 30.1252L133.587 29.9552L133.375 29.764L133.183 29.5728L132.886 29.2116L132.737 28.9989L132.609 28.7655L132.482 28.5103L132.376 28.2556L132.27 27.9794L132.185 27.7027L132.121 27.4265L132.057 27.0231L132.014 26.7257V26.1515L132.057 25.7906L132.1 25.472L132.142 25.1745L132.206 24.8978L132.291 24.6003L132.397 24.3457L132.503 24.0695L132.652 23.8355L132.779 23.5809L132.971 23.3681L133.141 23.156L133.332 22.9648L133.544 22.7948L133.863 22.5608L134.096 22.4334L134.351 22.3059L134.606 22.2L134.861 22.1147L135.116 22.0513L135.541 21.9872L135.944 21.9444H136.221L136.348 21.9232L136.773 21.966L137.283 22.0513L137.538 22.1147L137.814 22.2L138.069 22.3059L138.303 22.4118L138.557 22.5605L138.77 22.7092L138.983 22.8792L139.195 23.0704L139.386 23.2616L139.578 23.4744L139.726 23.7078L139.875 23.9417L139.981 24.1964L140.087 24.451L140.193 24.7063L140.257 24.9609L140.3 25.1736L140.342 25.4711L140.385 25.7685L140.427 26.0447V26.3433H140.428ZM111.11 7.88187H111.004L110.876 7.90312L110.727 7.92436L110.621 7.9881L110.494 8.03059L110.409 8.11557L110.303 8.22179L108.985 10.0064H114.233L114.36 9.98511L114.488 9.96386L114.594 9.92137L114.721 9.85764L114.828 9.77266L114.913 9.70892L114.998 9.6027L115.061 9.53897L116.209 7.88187H111.11ZM129.062 14.9776L129.486 14.8714L129.784 14.7652L130.06 14.659L130.337 14.5527L130.613 14.404L131.038 14.1703L131.292 14.0216L131.526 13.8729L131.781 13.7029L131.993 13.5117L132.206 13.2993L132.397 13.1081L132.652 12.8107L132.822 12.577L132.971 12.3433L133.119 12.0886L133.268 11.8125L133.375 11.5363L133.502 11.2176L133.566 10.8989L133.651 10.6015L133.714 10.3041L133.757 10.0066L133.778 9.70951L133.8 9.39084L133.821 9.11466L133.842 8.83818V8.6042L133.821 8.32801L133.778 8.03059L133.735 7.73316L133.671 7.45698L133.586 7.15955L133.501 6.88307L133.395 6.60689L133.268 6.33041L133.14 6.07577L132.992 5.82083L132.822 5.5659L132.609 5.26847L132.418 5.03478L132.206 4.82233L131.993 4.60988L131.759 4.41868L131.525 4.26997L131.292 4.10001L131.058 3.95129L130.803 3.80258L130.57 3.67482L130.315 3.54735L130.06 3.44113L129.784 3.3352L129.529 3.25022L129.252 3.16524L128.998 3.08026L128.721 3.01652L128.445 2.95279L128.168 2.9103L127.914 2.86781L127.637 2.84657L127.382 2.82532L127.106 2.80408H127.021L126.851 2.82532H120.287V15.2113H127.552L127.85 15.1901L128.148 15.1476L128.445 15.1051L128.764 15.0414L129.062 14.9776ZM128.297 12.8744L128.042 12.9594L127.787 13.0231L127.532 13.0656L127.278 13.1081H123.474V4.88636H126.598L126.895 4.9076H127.023L127.171 4.92855L127.426 4.99229L127.703 5.05602L127.958 5.141L128.212 5.24693L128.467 5.37469L128.701 5.50216L128.935 5.65088L129.168 5.82083L129.359 6.01204L129.529 6.16046L129.72 6.3732L129.869 6.58565L130.018 6.81934L130.124 7.05303L130.252 7.30797L130.337 7.54166L130.401 7.81784L130.443 7.9881L130.507 8.26428L130.549 8.54046V9.32681L130.507 9.60299L130.464 9.87918L130.379 10.1554L130.315 10.3891L130.23 10.6652L130.124 10.9414L129.997 11.1964L129.848 11.4513L129.699 11.7059L129.529 11.9399L129.359 12.1524L129.189 12.3433L128.977 12.492L128.765 12.6407L128.531 12.7682L128.297 12.8744ZM127.022 29.7425L126.789 29.8277L126.47 29.9124L126.172 29.9977L125.854 30.0824L125.535 30.1464L125.238 30.2098L124.919 30.2739L124.601 30.2951L124.324 30.3376L124.005 30.3798L123.708 30.401L123.411 30.4226H123.092L122.794 30.401L122.476 30.3798L122.072 30.3585L121.796 30.3164L121.499 30.2739L121.244 30.2098L120.968 30.1036L120.712 30.0189L120.415 29.8702L120.16 29.7425L119.948 29.5937L119.714 29.445L119.502 29.2751L119.247 28.9989L119.077 28.787L118.907 28.5743L118.758 28.3403L118.63 28.1069L118.524 27.8523L118.397 27.4268L118.333 27.1293L118.312 26.8322L118.291 26.556V26.2586L118.312 25.9612L118.333 25.6847L118.376 25.4085L118.418 25.1326L118.503 24.8777L118.588 24.6225L118.694 24.3891L118.864 24.0916L119.013 23.8576L119.183 23.6243L119.374 23.433L119.565 23.2418L119.778 23.0503L120.011 22.8804L120.266 22.7317L120.521 22.6042L120.797 22.477L121.074 22.3708L121.35 22.2855L121.668 22.2221L121.966 22.1796L122.263 22.1368L122.582 22.1156L122.879 22.0943L123.283 22.1156L123.581 22.1368L123.92 22.1796L124.239 22.2008L124.537 22.2643L124.855 22.3071L125.174 22.3708L125.471 22.4558L125.79 22.5411L126.087 22.6257L126.406 22.7104L126.703 22.8169L127.001 22.9232H127.022L127.362 23.0503V20.6709L127.256 20.6287L127.022 20.5435L126.958 20.5222L126.661 20.416L126.343 20.3101L126.045 20.2248L125.662 20.1401L125.365 20.0761L125.046 20.0126L124.728 19.9701L124.409 19.9274L123.793 19.8639L123.474 19.8427L123.156 19.8214L122.837 19.8002L122.455 19.7787H121.838L121.52 19.8002L121.201 19.8214L120.712 19.8855L120.394 19.9274L120.097 19.9914L119.799 20.0548L119.502 20.1401L119.225 20.246L118.843 20.3948L118.567 20.5013L118.291 20.65L118.036 20.7987L117.759 20.9474L117.526 21.1174L117.228 21.3508L116.995 21.5423L116.782 21.7335L116.548 21.9456L116.357 22.1796L116.166 22.413L115.89 22.7529L115.72 23.0291L115.571 23.2843L115.423 23.5605L115.316 23.8364L115.21 24.0491L115.104 24.3466L115.019 24.6225L114.955 24.9199L114.891 25.2173L114.828 25.7059L114.806 26.0034V26.5988L114.828 26.9806L114.87 27.2781L114.934 27.5755L114.998 27.8729L115.061 28.1703L115.21 28.553L115.316 28.8289L115.444 29.1051L115.592 29.3603L115.741 29.6362L115.954 29.9764L116.145 30.2098L116.336 30.4438L116.527 30.6772L116.761 30.89L117.058 31.1446L117.292 31.3358L117.547 31.5273L117.802 31.676L118.099 31.8672L118.376 31.9947L118.673 32.1219L118.97 32.2281L119.247 32.3346L119.544 32.4193L120.139 32.5468L120.458 32.5892L120.776 32.632L121.095 32.6745L121.414 32.6961L121.902 32.7167L122.221 32.738H122.858L123.177 32.7167H123.496L123.835 32.6745L124.133 32.6533L124.409 32.632L124.728 32.5892L125.046 32.5468L125.365 32.4833L125.662 32.4193L125.981 32.3346L126.3 32.2493L126.597 32.1646L126.895 32.0794L127.022 32.0372L127.043 32.0159L127.383 31.91L127.405 29.5937L127.086 29.7218L127.022 29.7425Z" fill="black"/>
<path d="M57.9556 15.7636V9.47512L53.5366 11.982L49.2664 14.3827L45.2721 16.5921L41.6393 18.5679L38.3679 20.31L35.4358 21.818L32.7593 23.1143L30.3583 24.1978L28.1066 25.1538L25.9609 25.9398L23.8362 26.6406L21.7757 27.2355L19.715 27.7241L17.718 28.1493L15.8269 28.468L14.0426 28.7229L12.4492 28.8928L11.0256 28.9775L9.83614 29.0416L8.79485 28.9988L7.22304 28.8288L6.13926 28.5742L5.3532 28.2555L4.71615 27.8306L4.20628 27.342L3.80233 26.7681L3.56864 26.1313L3.48366 25.3872L3.56864 24.4952L3.88761 23.4757L4.39748 22.3707L5.07731 21.2447L5.9271 20.1188L6.88282 19.0353L7.86008 18.0365L8.85888 17.1657L9.94237 16.3159L11.1533 15.4024L12.4068 14.5739L13.6177 13.8303L14.8712 13.1292L16.1671 12.4706L17.4627 11.897L18.7802 11.3659L20.0336 10.941L21.2021 10.5798L22.2431 10.3462L23.1991 10.1974L24.1551 10.155L25.1536 10.2399L25.6847 10.3037L25.4086 9.32641L24.9199 7.66931L24.5372 6.50085L24.2401 5.79977L24.0064 5.41737L23.7727 5.18368L23.5175 5.01372L23.1141 4.865L22.4768 4.80127L21.5633 4.84376L20.416 4.99247L19.1201 5.26866L17.7814 5.65106L16.3792 6.16064L15.0199 6.73454L13.7236 7.3294L12.4702 7.98799L11.2383 8.68906L9.98486 9.47512L8.68892 10.3462L7.41424 11.2597L6.28827 12.1732L5.28947 13.0018L4.39748 13.8515L3.52615 14.7438L2.71914 15.7211L1.97558 16.7408L1.31699 17.7818L0.785869 18.9078L0.360678 20.0338L0.126986 21.1807L0.0210571 22.2854L0.106036 23.4757L0.318189 24.7292L0.6584 25.982L1.10425 27.172L1.61412 28.2555L2.20927 29.2115L2.91035 30.1463L3.71735 30.9958L4.58839 31.7396L5.52316 32.3773L6.56445 32.8866L7.79664 33.3327L9.26224 33.7367L10.8344 34.0125L12.4492 34.1828L14.0426 34.2253L15.5722 34.14L16.9531 34.0341L18.2703 33.8426L19.5875 33.6092L20.9044 33.354L22.1369 33.0565L23.3478 32.7591L24.6225 32.3773L25.9394 31.9946L27.2569 31.5697L28.595 31.1023L29.9337 30.5924L31.2721 30.061L32.6105 29.4877L33.9702 28.8501L35.4149 28.1493L36.2434 27.7028L37.3269 27.1292L38.814 26.3219L40.9807 25.1538L43.9765 23.4964L47.9493 21.3082L52.7081 18.6526L57.9556 15.7636Z" fill="#4284B5"/>
</g>
<defs>
<clipPath id="clip0">
<rect width="170" height="34.544" fill="white"/>
</clipPath>
</defs>
</svg>
