<svg width="200" height="39" viewBox="0 0 200 39" fill="none" xmlns="http://www.w3.org/2000/svg">
<path d="M6.12443 36.8527H1.33257V22.2957H6.12443C11.1941 22.2957 13.9112 24.7723 13.9112 29.5642C13.9112 34.3153 11.6542 36.8527 6.12443 36.8527ZM5.7772 24.5102H4.20596V34.6373H5.74248C9.70098 34.7181 10.9771 32.7857 10.9771 29.5842C10.9771 26.0606 9.1454 24.5102 5.7772 24.5102Z" fill="#1C62B7"/>
<path d="M18.3038 30.7118C18.3819 29.3827 19.033 28.1544 20.5348 28.1544C21.9932 28.1544 22.7137 29.2412 22.6529 30.7118H18.3038ZM20.6216 26.4434C16.7933 26.4434 15.4651 29.1614 15.4651 31.7179C15.4651 34.7588 16.993 37.0332 20.257 37.1339C22.8526 37.1547 25.153 36.3691 25.3093 33.5305H22.6529C22.6529 34.6781 21.7241 35.4229 20.6389 35.4229C18.8073 35.4229 18.2257 34.0739 18.1996 32.4228L25.535 32.4028C25.752 29.3827 24.4412 26.4434 20.6216 26.4434Z" fill="#1C62B7"/>
<path d="M37.315 36.8525H34.5719L34.5545 35.2014C34.0944 36.5096 32.8183 37.1745 31.2557 37.1745C29.398 37.1745 27.6445 36.0469 27.6271 33.3489V26.8052H30.405V32.966C30.3876 34.4157 30.9519 35.2213 32.3148 35.2413C33.5475 35.2413 34.5545 34.5364 34.5545 32.5841V26.8052H37.315V36.8525Z" fill="#1C62B7"/>
<path d="M40.8742 26.8461V25.2549L43.5566 23.8459V26.8461H46.1175V28.7984H43.5566V33.6511C43.5566 34.6372 43.8952 35.2015 44.9022 35.2414C45.2841 35.2414 45.6313 35.2813 46.1348 35.1407V36.8726C44.824 37.054 43.3135 37.396 42.0635 36.731C41.1173 36.2284 40.8742 35.3421 40.8742 33.9332V28.7984H38.7213V26.8461H40.8742Z" fill="#1C62B7"/>
<path d="M56.5433 32.5233C56.986 33.4096 56.9686 34.5772 56.4217 35.3828C55.4755 36.8317 53.4181 37.1945 51.8295 37.1546C49.5725 37.0131 47.5672 36.4297 47.6627 33.7317H50.4059C50.3798 34.8993 51.109 35.322 52.1507 35.362C53.1577 35.362 54.1647 35.0199 54.1647 34.0937C54.1647 33.3489 53.4615 33.0268 52.5587 32.8254C51.5257 32.604 50.7878 32.5033 49.6333 32.0398C48.7131 31.597 47.8016 30.8522 47.8016 29.4433C47.8016 28.2748 48.7131 27.3894 49.9024 26.9059C50.701 26.5638 51.6906 26.4631 52.5414 26.4631C54.4512 26.4631 56.5259 27.1272 56.4044 29.5431H53.8261C53.8261 29.1811 53.748 28.7783 53.4442 28.537C52.8799 28.0335 51.1437 27.9728 50.6055 28.7983C49.9979 30.2081 51.8729 30.3088 53.9477 30.8722C55.2585 31.1743 56.144 31.7177 56.5433 32.5233Z" fill="#1C62B7"/>
<path d="M63.4099 26.4224C65.6062 26.4224 67.8806 27.4293 67.8806 30.1881L65.1808 30.1673C65.1808 28.8791 64.4776 28.0934 63.1495 28.1542C62.8022 28.1742 62.4376 28.2948 62.1425 28.4563C61.3091 28.9398 61.0487 30.2888 61.0487 31.6379C61.0487 33.0667 61.3959 34.4566 62.0209 34.9592C62.4376 35.362 63.1842 35.4835 63.8266 35.362C64.8943 35.1814 65.2155 34.1336 65.2416 33.2282L67.8806 33.2082C67.9153 36.0868 65.5628 37.1746 63.1061 37.1338C59.8247 37.0131 58.3142 34.8793 58.3142 31.7177C58.3142 28.5171 60.1459 26.4224 63.4099 26.4224Z" fill="#1C62B7"/>
<path d="M70.0074 22.3157H72.7853V28.3958C73.5145 27.1075 74.5996 26.5442 76.0667 26.5442C77.9244 26.5442 79.6779 27.9331 79.6779 29.9262V36.8528H76.9348V30.691C76.9348 29.322 76.3531 28.4166 75.0423 28.4166C73.8183 28.4166 72.7679 29.2213 72.7679 31.0739V36.8528H70.0074V22.3157Z" fill="#1C62B7"/>
<path d="M84.6695 30.7118C84.7476 29.3827 85.39 28.1544 86.9005 28.1544C88.3502 28.1544 89.0794 29.2412 89.0186 30.7118H84.6695ZM86.9873 26.4434C83.159 26.4434 81.8308 29.1614 81.8308 31.7179C81.8308 34.7588 83.3587 37.0332 86.6227 37.1339C89.2183 37.1547 91.5187 36.3691 91.675 33.5305H89.0186C89.0186 34.6781 88.0897 35.4229 87.0046 35.4229C85.173 35.4229 84.5913 34.0739 84.5653 32.4228L91.9007 32.4028C92.1177 29.3827 90.8069 26.4434 86.9873 26.4434Z" fill="#1C62B7"/>
<path d="M109.028 36.4298C108.091 36.731 106.875 36.8526 105.573 36.8526H100.312V22.3354H105.912C108.412 22.3354 111.025 23.1211 111.129 25.9198C111.19 27.6916 109.983 28.8184 108.473 29.3219C109.636 29.6239 110.582 29.966 111.224 31.0537C111.789 32.0199 111.832 33.309 111.372 34.3759C110.886 35.3829 110.139 36.047 109.028 36.4298ZM105.912 24.51H103.073V28.2749H105.955C107.466 28.2749 108.247 27.6508 108.247 26.4224C108.247 25.2748 107.344 24.51 105.912 24.51ZM106.198 30.4495L103.073 30.4295V34.698H106.094C108.108 34.698 108.75 33.7109 108.75 32.4835C108.75 31.5372 108.065 30.4295 106.198 30.4495Z" fill="#1C62B7"/>
<path d="M117.813 35.4027C116.789 35.3219 116.181 34.8184 116.181 33.8523C116.199 31.7384 118.881 31.9598 120.27 31.9598C120.331 33.6309 120.192 35.3619 117.813 35.4027ZM122.909 29.5639C122.909 27.51 120.695 26.483 118.134 26.503C115.695 26.5438 113.924 27.3285 113.889 29.6845H116.563C116.502 28.5968 117.249 28.0334 118.239 28.0135C119.723 28.0135 120.391 28.6975 120.253 30.3894C118.777 30.4693 116.806 30.3686 115.339 31.0535C114.271 31.557 113.447 32.5032 113.447 34.0129C113.447 35.9461 114.792 37.1137 116.763 37.1744C118.178 37.3151 119.784 36.6909 120.409 35.3827L120.513 36.8524H122.909C122.909 34.4156 122.909 32.0197 122.909 29.5639Z" fill="#1C62B7"/>
<path d="M125.583 26.8052H128.361V28.4164C129.09 27.1073 130.418 26.5439 131.911 26.5439C133.578 26.5439 135.288 27.5101 135.288 29.926V36.8525H132.51V30.6908C132.527 29.3826 131.885 28.4164 130.618 28.4164C129.368 28.4164 128.343 29.2211 128.343 31.0736V36.8525H125.583V26.8052Z" fill="#1C62B7"/>
<path d="M145.011 36.8528L140.783 31.0938L144.611 26.8054H147.875L143.908 30.9931L148.578 36.8528H145.011ZM137.97 22.3157H140.705V36.8528H137.97V22.3157Z" fill="#1C62B7"/>
<path d="M163.31 1.33105H198.667V36.8317H163.31V1.33105ZM184.795 9.73941L170.984 28.2758H177.226L191.089 9.73941H184.795ZM168.232 31.9148H193.745V6.2488H168.232V31.9148Z" fill="#1C62B7"/>
</svg>
