<svg width="180" height="90" viewBox="0 0 180 90" fill="none" xmlns="http://www.w3.org/2000/svg">
<path fill-rule="evenodd" clip-rule="evenodd" d="M151.923 42.9132H146.249V20.5497H151.589V23.0534C152.257 21.5511 153.926 20.2156 156.096 20.0489C159.768 19.8823 162.271 22.0519 162.271 26.725V42.9132H156.429V26.0578C156.429 24.0549 156.429 22.386 155.094 22.0519C154.594 21.8853 153.759 22.0519 153.091 22.5516C152.257 23.3865 151.923 24.388 151.923 26.0578C151.923 26.3909 151.923 42.9132 151.923 42.9132Z" fill="#64A8F0"/>
<path fill-rule="evenodd" clip-rule="evenodd" d="M55.4566 22.0517C54.1219 20.8837 52.4522 20.0488 50.4492 20.0488C48.4473 20.0488 46.9451 20.8837 45.4429 22.0517C43.1058 24.0547 41.6045 27.7264 41.6045 31.7314C41.6045 35.9038 43.1058 39.408 45.4429 41.4119C46.9451 42.58 48.4473 43.4139 50.4492 43.4139C52.4522 43.4139 54.1219 42.58 55.4566 41.4119C57.9603 39.408 59.295 35.9038 59.295 31.7314C59.295 27.7264 57.9603 24.0547 55.4566 22.0517ZM53.287 31.7314C53.287 35.9038 53.287 39.2423 52.6188 40.9112C52.119 41.7451 51.6174 42.2459 50.4492 42.2459C49.4487 42.2459 48.7815 41.7451 48.4473 40.9112C47.6124 39.2423 47.6124 35.9038 47.6124 31.7314C47.6124 27.7264 47.6124 24.2213 48.4473 22.5515C48.7815 21.7176 49.4487 21.2169 50.4492 21.2169C51.6174 21.2169 52.119 21.7176 52.6188 22.5515C53.4546 24.2213 53.287 27.7264 53.287 31.7314Z" fill="#64A8F0"/>
<path fill-rule="evenodd" clip-rule="evenodd" d="M113.703 51.4255V57.4334H112.536C111.868 54.9307 110.867 52.7612 108.197 52.5937C106.528 52.427 105.025 53.4284 104.858 54.9307C104.691 56.432 105.192 57.7675 108.197 59.4364C112.035 61.6059 115.039 62.6073 115.039 67.114C115.039 71.9538 110.867 74.2908 107.362 74.2908C105.859 74.2908 100.685 74.2908 100.685 74.2908V65.945H101.854C102.689 70.2849 104.024 72.9552 107.195 73.1218C109.198 73.1218 110.699 71.9538 110.699 69.7843C110.699 67.6147 109.364 66.2791 106.193 64.4427C102.689 62.2732 100.518 60.9385 100.518 57.9341C100.518 53.9283 103.357 51.4255 107.863 51.4255C109.364 51.4255 113.703 51.4255 113.703 51.4255Z" fill="#64A8F0"/>
<path fill-rule="evenodd" clip-rule="evenodd" d="M121.047 42.9131V26.7249C121.047 22.0517 118.543 19.8822 114.872 20.0488C112.368 20.2154 110.867 21.8852 110.198 23.2198C109.364 20.8837 107.528 19.8822 104.858 20.0488C102.689 20.2154 101.019 21.5509 100.352 23.0532V20.5495H95.1787V42.9131H100.853C100.853 42.9131 100.853 26.5583 100.853 26.0576C100.853 24.3878 101.019 23.3863 102.021 22.5514C102.689 22.0517 103.357 21.8852 103.857 22.0517C105.192 22.3858 105.192 24.0547 105.192 26.0576V42.9131H110.867V25.891C110.867 24.3878 111.2 23.3863 112.035 22.5514C112.703 22.0517 113.37 21.8852 113.871 22.0517C115.206 22.3858 115.372 24.0547 115.372 26.0576V42.9131H121.047Z" fill="#64A8F0"/>
<path fill-rule="evenodd" clip-rule="evenodd" d="M63.1343 15.8765H68.9755V42.9132H63.1343V15.8765Z" fill="#64A8F0"/>
<path fill-rule="evenodd" clip-rule="evenodd" d="M89.6713 42.9132V15.8765H83.829V22.2184C83.3293 21.0504 82.1602 20.2155 80.4914 20.2155C76.319 20.2155 72.9804 24.5546 72.8138 31.2307C72.6473 35.7373 74.1494 43.2473 79.9906 43.2473C82.3268 43.2473 83.6624 41.9127 84.1632 40.7437V42.9132H89.6713ZM82.8275 22.3859C83.9966 24.0548 83.9966 28.0596 83.9966 31.2307C83.9966 34.5682 84.1632 38.9083 82.8275 40.7437C82.3268 41.4119 81.827 41.7452 80.9921 41.7452C79.8241 41.7452 79.1559 40.4105 78.8226 38.241C78.6551 36.238 78.6551 33.7343 78.6551 31.0641C78.6551 26.5585 78.9892 21.5511 81.1588 21.5511C81.9936 21.5511 82.3268 21.8853 82.8275 22.3859Z" fill="#64A8F0"/>
<path fill-rule="evenodd" clip-rule="evenodd" d="M138.405 21.2169C139.906 22.0517 140.908 23.3864 140.908 26.3908V42.9131H135.401V40.4105C134.733 42.2459 132.897 43.4139 130.393 43.4139C128.391 43.4139 124.886 42.4134 124.886 37.2394C124.886 32.3986 128.057 31.3982 131.562 29.896C134.733 28.5613 135.066 28.3928 135.066 27.0582C135.066 25.891 135.066 24.8886 135.066 23.3864C135.066 21.8852 134.233 21.2169 132.563 21.2169C131.896 21.3835 130.727 21.7176 130.727 22.5515C130.56 23.554 131.728 23.554 131.896 25.0561C132.062 27.3923 130.226 28.2262 128.558 28.0596C127.389 28.0596 126.054 27.3923 125.887 25.5569C125.721 22.5515 129.058 20.0488 133.731 20.0488C135.901 20.0488 137.236 20.5496 138.405 21.2169ZM135.066 29.5618L133.231 30.7299C131.395 31.8989 131.061 33.4001 130.894 35.0699C130.727 36.4045 130.727 37.5736 130.894 39.5756C131.061 41.4119 132.23 41.7451 133.231 41.4119C134.4 40.9112 135.066 38.7417 135.066 36.4045C135.066 36.4045 135.066 30.3967 135.066 29.5618Z" fill="#64A8F0"/>
<path fill-rule="evenodd" clip-rule="evenodd" d="M55.7908 52.427C57.293 53.4284 58.1268 54.5966 58.1268 57.6V74.2908H52.7864V71.7872C52.119 73.4559 50.2836 74.624 47.779 74.624C45.6094 74.624 42.2709 73.7891 42.2709 68.6161C42.2709 63.7763 45.4429 62.7749 48.7815 61.2727C52.119 59.7705 52.4522 59.6039 52.4522 58.4349C52.4522 57.2669 52.4522 56.2653 52.4522 54.7632C52.4522 53.0943 51.6174 52.427 49.9495 52.5937C49.2812 52.5937 48.1131 52.9278 48.1131 53.7617C47.9466 54.9307 49.1146 54.9307 49.2812 56.432C49.4487 58.6024 47.6124 59.4364 45.9436 59.4364C44.7755 59.2698 43.4399 58.6024 43.2724 56.7661C43.1058 53.9283 46.4443 51.4255 51.1175 51.4255C53.287 51.4255 54.6217 51.7597 55.7908 52.427ZM52.4522 60.7719L50.6169 61.94C48.7815 63.1081 48.4473 64.6103 48.2797 66.2791C48.1131 67.6147 48.1131 68.9494 48.2797 70.7857C48.2797 72.7887 49.4487 73.1218 50.4492 72.6211C51.7849 72.1203 52.4522 70.1184 52.4522 67.6147C52.4522 67.6147 52.4522 61.6059 52.4522 60.7719Z" fill="#64A8F0"/>
<path fill-rule="evenodd" clip-rule="evenodd" d="M96.1794 58.1019C96.1794 53.4286 93.6762 51.0916 90.0044 51.4257C88.169 51.5923 86.6668 52.4272 85.832 53.5953V47.0867H80.1573V62.441C80.1573 68.1156 76.1523 73.4561 72.1465 73.2886C69.3086 73.2886 68.6414 71.1191 68.3082 68.783C67.8075 65.4444 67.8075 61.6061 68.1406 57.4336C68.4747 54.7634 69.1421 52.5939 71.145 52.5939C72.6473 52.5939 72.8138 53.5953 72.1465 54.2626C71.4782 55.0975 70.4777 55.9314 70.9784 57.7677C71.4782 59.7707 74.6492 60.1038 76.1523 58.6026C77.3205 57.267 77.1538 55.0975 76.319 53.7619C75.3175 52.0931 73.6487 51.4257 71.145 51.4257C67.974 51.4257 61.9661 54.2626 61.9661 63.2759C61.9661 72.9554 68.1406 74.6242 71.6458 74.6242C75.6516 74.6242 79.1559 71.1191 80.1573 68.2822V74.291H85.832V57.4336C85.832 55.7648 86.1661 54.7634 87 53.9285C87.6683 53.4286 88.5022 53.2611 89.003 53.4286C90.3385 53.7619 90.3385 55.4307 90.3385 57.4336V74.291H96.1794V58.1019Z" fill="#64A8F0"/>
<path fill-rule="evenodd" clip-rule="evenodd" d="M37.7653 15.3757V24.8887H36.5972C35.5958 20.2155 33.4263 16.7104 30.4218 16.5438C28.4188 16.3771 27.2518 17.5453 26.2493 19.215C25.2488 21.2169 24.7471 25.3895 24.7471 30.3968C24.7471 35.07 24.9147 38.5742 25.4154 41.0778C25.7486 42.246 26.5834 44.0822 28.753 44.0822C29.9211 44.0822 30.756 43.7481 31.2567 43.0808C32.0916 42.0793 32.2581 40.0764 32.2581 38.7418C32.2581 36.5723 32.2581 35.9039 32.2581 34.2351C32.2581 32.5663 31.7574 31.5648 30.9225 31.0641C30.2552 30.7299 29.2537 30.7299 28.753 30.5634V29.3953H38.0994V53.2611H36.9304C36.4307 51.4257 36.0964 50.0901 35.2625 48.5879C34.4277 47.0867 32.9255 45.4179 30.4218 45.4179C27.7516 45.2504 25.7486 46.92 25.7486 49.4228C25.7486 52.7614 27.7516 53.5952 31.4232 55.5973C34.9284 57.6002 39.4341 59.2699 39.4341 65.1112C39.4341 70.7859 34.5943 74.291 29.0872 74.291C27.9181 74.291 20.2415 74.291 20.2415 74.291V62.7751H21.4095C22.9117 71.4532 26.5834 72.9554 29.0872 72.9554C32.2581 72.9554 33.7594 70.9525 33.7594 68.1156C33.5928 64.4429 31.0901 63.1082 27.5849 61.2729C22.5786 58.4351 20.2415 57.0994 20.2415 52.4272C20.4081 48.4213 23.58 45.9176 27.0842 44.9171C19.7407 44.0822 17.5712 37.4071 17.7378 30.2292C17.7378 23.0533 21.9102 15.3757 30.0876 15.3757C33.7594 15.3757 37.7653 15.3757 37.7653 15.3757Z" fill="#64A8F0"/>
</svg>
