<svg width="88" height="88" viewBox="0 0 88 88" fill="none" xmlns="http://www.w3.org/2000/svg">
<path d="M9.74294 69.7856C10.46 70.121 11.1333 70.437 11.9184 70.6825C8.14602 66.6549 5.99249 61.3197 5.99249 55.6588V33.963H13.7681V18.39H34.2412V33.963H42.0168V50.7392H55.8762V37.1398H52.2668V32.2178H83.3715V37.1398H79.762V68.879C81.2325 68.3369 83.0555 67.914 85.7 67.914V72.836C82.7492 72.836 81.3565 73.4899 79.745 74.2433C77.8734 75.1208 75.749 76.1174 71.6996 76.1174C67.6526 76.1174 65.5282 75.1208 63.6542 74.2433C62.0427 73.4899 60.65 72.836 57.6992 72.836C54.746 72.836 53.3557 73.4899 51.7417 74.2433C49.8702 75.1208 47.7458 76.1174 43.6988 76.1174C39.6518 76.1174 37.5274 75.1208 35.6558 74.2433C34.0443 73.4899 32.6516 72.836 29.6984 72.836C26.7476 72.836 25.3549 73.4899 23.7434 74.2433C21.8718 75.1208 19.7474 76.1174 15.7004 76.1174C11.651 76.1174 9.52661 75.1208 7.65503 74.2433C6.04353 73.4899 4.65077 72.836 1.69756 72.836V67.914C5.74699 67.914 7.86893 68.9081 9.74294 69.7856ZM40.7602 10.5172L55.6137 2.44995V8.07199H85.7V12.9624L55.6137 12.96V18.582L40.7602 10.5172ZM70.3628 46.1915H65.4383V41.2695H70.3628V46.1915ZM21.5096 58.6582H16.5852V53.7362H21.5096V58.6582ZM15.7004 81.5304C18.6512 81.5304 20.0439 80.8765 21.6554 80.123C23.5294 79.2456 25.6514 78.249 29.7008 78.249C33.7502 78.249 35.8722 79.2456 37.7462 80.123C39.3577 80.8765 40.7504 81.5304 43.7012 81.5304C46.6544 81.5304 48.0448 80.8765 49.6587 80.123C51.5303 79.2456 53.6546 78.249 57.7016 78.249C61.7486 78.249 63.873 79.2456 65.747 80.123C67.3585 80.8765 68.7513 81.5304 71.702 81.5304C74.6528 81.5304 76.0456 80.8765 77.6571 80.123C79.5287 79.2456 81.653 78.249 85.7 78.249V83.171C82.7492 83.171 81.3565 83.8225 79.745 84.5784C77.8734 85.4558 75.749 86.45 71.6996 86.45C67.6526 86.45 65.5282 85.4558 63.6542 84.5784C62.0427 83.8225 60.65 83.171 57.6992 83.171C54.746 83.171 53.3557 83.8225 51.7417 84.5784C49.8702 85.4558 47.7458 86.45 43.6988 86.45C39.6518 86.45 37.5274 85.4558 35.6558 84.5784C34.0443 83.8225 32.6516 83.171 29.6984 83.171C26.7476 83.171 25.3549 83.8225 23.7434 84.5784C21.8718 85.4558 19.7474 86.45 15.7004 86.45C11.651 86.45 9.52661 85.4558 7.65503 84.5784C6.04353 83.8225 4.65077 83.171 1.69756 83.171V78.249C5.74699 78.249 7.86893 79.2456 9.74294 80.123C11.3544 80.8765 12.7472 81.5304 15.7004 81.5304ZM10.9145 43.8435H21.5412V38.8875H10.9145V43.8435ZM29.3192 23.312H18.6901V33.9411H29.3192V23.312ZM37.0924 38.885H26.4632V45.5231L30.1359 50.7368H37.0924V38.885ZM74.8424 37.1398H60.7958V50.7392H74.8424V37.1398ZM29.6984 67.914C33.7478 67.914 35.8697 68.9081 37.7438 69.7856C39.3553 70.5415 40.748 71.1929 43.6988 71.1929C46.652 71.1929 48.0423 70.5415 49.6563 69.7856C51.5278 68.9081 53.6522 67.914 57.6992 67.914C61.7462 67.914 63.8706 68.9081 65.7446 69.7856C67.3561 70.5415 68.7488 71.1929 71.6996 71.1929C73 71.1929 73.9965 71.0665 74.84 70.8599V55.6588H27.5813L22.7273 48.7631H10.9145V55.6564C10.9145 61.1617 13.7583 67.2918 19.412 70.6995C20.2262 70.4491 20.9165 70.1259 21.653 69.7807C23.5294 68.9081 25.6514 67.914 29.6984 67.914Z" fill="#07A7EB"/>
</svg>
