<svg width="160" height="25" viewBox="0 0 160 25" fill="none" xmlns="http://www.w3.org/2000/svg">
<g clip-path="url(#clip0)">
<path d="M92.0616 0.568848H100.444C101.698 0.568848 102.803 0.721352 103.754 1.02386C104.705 1.32637 105.5 1.76013 106.137 2.32265C106.777 2.88767 107.257 3.56019 107.581 4.34522C107.907 5.12899 108.071 6.00152 108.071 6.9603C108.071 7.61032 107.986 8.18909 107.817 8.70035C107.651 9.21287 107.422 9.66663 107.128 10.0666C106.836 10.4629 106.495 10.8079 106.108 11.0979C105.722 11.3904 105.32 11.6317 104.905 11.8217V11.8817C105.427 12.0092 105.921 12.2217 106.391 12.528C106.863 12.8305 107.282 13.208 107.648 13.6543C108.012 14.1055 108.3 14.6318 108.511 15.2418C108.718 15.8481 108.823 16.5168 108.823 17.2469C108.823 18.3332 108.623 19.3019 108.226 20.147C107.83 20.9945 107.266 21.7158 106.546 22.312C105.823 22.9095 104.957 23.3633 103.956 23.6783C102.952 23.9908 101.844 24.1483 100.628 24.1483H92.0591L92.0616 0.568848ZM99.6268 10.2504C100.757 10.2504 101.666 10.0041 102.344 9.51163C103.026 9.01911 103.366 8.30534 103.366 7.36531C103.366 6.38153 103.047 5.67276 102.407 5.23274C101.767 4.79523 100.974 4.57772 100.034 4.57772H96.7655V10.2504H99.6268ZM99.8769 20.1395C101.362 20.1395 102.409 19.8532 103.016 19.2782C103.623 18.7032 103.928 17.9969 103.928 17.1606C103.928 16.7819 103.864 16.4118 103.739 16.0443C103.614 15.6756 103.403 15.3468 103.113 15.0555C102.818 14.763 102.439 14.5268 101.983 14.3493C101.519 14.1705 100.946 14.0843 100.254 14.0843H96.7655V20.142L99.8769 20.1395Z" fill="#009DE0"/>
<path d="M120.689 22.0384L120.62 22.0621C119.867 23.0421 118.995 23.7084 118.001 24.0659C117.01 24.4197 116.042 24.5959 115.105 24.5959C114.477 24.5959 113.829 24.5134 113.157 24.3472C112.489 24.1772 111.88 23.9034 111.325 23.5134C110.773 23.1259 110.318 22.6209 109.976 21.9921C109.633 21.3621 109.46 20.5921 109.46 19.6695C109.46 19.2308 109.523 18.7457 109.647 18.212C109.772 17.677 110.065 17.1707 110.526 16.6894C110.982 16.2069 111.673 15.7832 112.593 15.4169C113.511 15.0519 114.756 14.8181 116.322 14.7144L120.492 14.4619V13.7081C120.492 12.7443 120.215 12.028 119.659 11.558C119.11 11.0855 118.329 10.853 117.324 10.853C116.382 10.853 115.652 11.0693 115.13 11.5005C114.607 11.933 114.324 12.5156 114.28 13.2543H109.956C109.995 12.6256 110.148 11.9793 110.407 11.3218C110.671 10.6642 111.093 10.053 111.681 9.49921C112.263 8.94669 113.027 8.48918 113.967 8.13292C114.907 7.78041 116.091 7.5979 117.51 7.5979C118.516 7.5979 119.459 7.69915 120.335 7.89541C121.216 8.09417 121.988 8.40293 122.661 8.81919C123.328 9.24045 123.858 9.77547 124.246 10.4342C124.635 11.0893 124.829 11.8793 124.829 12.8006V22.1371C124.829 22.5571 124.85 22.9234 124.889 23.2384C124.93 23.5546 124.98 23.8572 125.043 24.1509H120.688V22.0384H120.689ZM120.497 17.1394L116.731 17.482C115.686 17.587 114.966 17.7957 114.57 18.1107C114.17 18.422 113.971 18.8733 113.971 19.4595C113.971 19.8145 114.049 20.112 114.206 20.352C114.362 20.5933 114.565 20.7858 114.816 20.9333C115.066 21.0796 115.364 21.1846 115.71 21.2483C116.056 21.3096 116.412 21.3408 116.791 21.3408C117.146 21.3408 117.539 21.2896 117.964 21.1846C118.394 21.0796 118.799 20.9183 119.175 20.6996C119.552 20.4783 119.866 20.1945 120.115 19.8508C120.364 19.507 120.494 19.0958 120.494 18.6132L120.497 17.1394Z" fill="#009DE0"/>
<path d="M136.982 14.3404C136.982 13.7529 136.904 13.2616 136.747 12.8641C136.591 12.4704 136.377 12.1491 136.104 11.9091C135.833 11.6691 135.528 11.4941 135.194 11.3891C134.86 11.2853 134.513 11.2328 134.16 11.2328C133.243 11.2328 132.52 11.5841 131.998 12.2854C131.475 12.9866 131.212 13.8867 131.212 14.9954V24.147H126.705V8.02148H131.022V10.1365H131.098C131.767 9.15526 132.497 8.48399 133.293 8.13023C134.084 7.77772 134.94 7.59521 135.86 7.59521C136.822 7.59521 137.658 7.74272 138.366 8.03773C139.072 8.32649 139.663 8.73275 140.136 9.24402C140.603 9.75528 140.947 10.3516 141.168 11.0316C141.386 11.7103 141.497 12.4366 141.497 13.2104V24.1507H136.986V14.3417H136.982V14.3404Z" fill="#009DE0"/>
<path d="M147.828 16.2518L147.762 16.2468V24.1483H143.256V0.568848H147.762V15.088L147.828 15.0868L152.692 8.02158L157.927 8.03408L152.536 15.2993L158.15 24.1483H152.599L147.828 16.2518Z" fill="#009DE0"/>
<path d="M11.3154 5.65136C11.3154 8.69896 8.83778 11.1753 5.79019 11.1753C2.74009 11.1753 0.266266 8.70146 0.266266 5.65136C0.266266 2.59752 2.74009 0.127441 5.79019 0.127441C8.83778 0.127441 11.3154 2.59627 11.3154 5.65136ZM24.7458 5.65136C24.7458 2.59752 22.272 0.127441 19.2231 0.127441C16.1755 0.127441 13.7029 2.59752 13.7029 5.65136C13.7029 8.69896 16.1755 11.1753 19.2231 11.1753C22.2732 11.174 24.7458 8.70021 24.7458 5.65136ZM11.3154 19.0855C11.3154 16.0354 8.83778 13.5654 5.79019 13.5654C2.74009 13.5654 0.266266 16.0354 0.266266 19.0855C0.266266 22.1356 2.74009 24.6095 5.79019 24.6095C8.83778 24.6095 11.3154 22.1369 11.3154 19.0855ZM24.7458 19.0855C24.7458 16.0354 22.272 13.5654 19.2231 13.5654C16.1755 13.5654 13.7029 16.0354 13.7029 19.0855C13.7029 22.1356 16.1755 24.6095 19.2231 24.6095C22.2732 24.6095 24.7458 22.1369 24.7458 19.0855Z" fill="#009DE0"/>
<path d="M155.231 16.0091C155.231 15.6966 155.29 15.4091 155.405 15.1366C155.522 14.8629 155.681 14.6253 155.886 14.4228C156.089 14.2216 156.329 14.0603 156.599 13.9441C156.867 13.8278 157.157 13.7678 157.467 13.7678C157.777 13.7678 158.07 13.8278 158.341 13.9441C158.612 14.0603 158.849 14.2216 159.05 14.4228C159.252 14.6253 159.412 14.8654 159.53 15.1366C159.647 15.4079 159.707 15.6966 159.707 16.0091C159.707 16.3192 159.647 16.6079 159.53 16.8779C159.412 17.1504 159.252 17.3867 159.05 17.5892C158.849 17.7929 158.609 17.9505 158.341 18.0667C158.07 18.1892 157.777 18.2455 157.467 18.2455C157.157 18.2455 156.867 18.1892 156.599 18.0667C156.326 17.9505 156.089 17.7929 155.886 17.5892C155.681 17.3867 155.522 17.1479 155.405 16.8779C155.29 16.6092 155.231 16.3192 155.231 16.0091ZM159.377 16.0091C159.377 15.7266 159.329 15.4704 159.226 15.2329C159.131 14.9979 158.995 14.7904 158.83 14.6203C158.657 14.4491 158.455 14.3153 158.226 14.2153C157.991 14.1178 157.739 14.0691 157.471 14.0691C157.197 14.0691 156.949 14.1178 156.716 14.2153C156.484 14.3153 156.285 14.4503 156.116 14.6203C155.945 14.7904 155.814 14.9979 155.714 15.2329C155.617 15.4704 155.57 15.7279 155.57 16.0091C155.57 16.2867 155.617 16.5467 155.714 16.7804C155.814 17.0154 155.946 17.2229 156.116 17.3929C156.287 17.5667 156.486 17.6992 156.716 17.7979C156.949 17.8955 157.197 17.9442 157.471 17.9442C157.74 17.9442 157.991 17.8955 158.226 17.7979C158.459 17.6992 158.661 17.5642 158.83 17.3929C158.997 17.2217 159.131 17.0154 159.226 16.7804C159.327 16.5454 159.377 16.2854 159.377 16.0091ZM157.472 16.1866H156.927V17.3204H156.592V14.6741H157.631C157.941 14.6741 158.172 14.7354 158.32 14.8566C158.471 14.9816 158.546 15.1666 158.546 15.4166C158.546 15.5416 158.524 15.6504 158.49 15.7391C158.449 15.8279 158.397 15.9041 158.336 15.9679C158.269 16.0316 158.196 16.0791 158.107 16.1154C158.029 16.1479 157.941 16.1729 157.851 16.1854L158.6 17.3217H158.2L157.472 16.1866ZM157.511 15.8891C157.624 15.8891 157.721 15.8829 157.809 15.8691C157.892 15.8579 157.967 15.8366 158.029 15.8041C158.09 15.7716 158.136 15.7266 158.164 15.6729C158.194 15.6116 158.211 15.5404 158.211 15.4404C158.211 15.3466 158.197 15.2666 158.172 15.2054C158.144 15.1429 158.104 15.0966 158.054 15.0616C158 15.0291 157.941 15.0066 157.867 14.9904C157.795 14.9779 157.714 14.9704 157.621 14.9704H156.927V15.8841H157.511V15.8891Z" fill="#009DE0"/>
<path d="M29.5947 0.568848H34.2973V24.1483H29.5947V0.568848ZM48.804 21.8833L48.7328 21.8958C48.084 22.8595 47.3102 23.5471 46.4139 23.9658C45.5139 24.3846 44.5414 24.5933 43.4964 24.5933C42.3663 24.5933 41.3425 24.3583 40.4213 23.8883C39.5025 23.4196 38.7112 22.792 38.0549 22.007C37.3937 21.2245 36.8824 20.3195 36.5161 19.2944C36.1499 18.2719 35.9686 17.1906 35.9686 16.0656C35.9686 14.9355 36.1411 13.863 36.4849 12.8517C36.8311 11.8367 37.3224 10.9379 37.9624 10.1554C38.5974 9.37037 39.3787 8.74785 40.2987 8.28909C41.2163 7.83032 42.2613 7.59782 43.4338 7.59782C44.4789 7.59782 45.4039 7.78782 46.2102 8.16408C47.0177 8.5416 47.7952 9.23287 48.549 10.2354H48.6103V0.568848H53.1192V24.1483H48.8053L48.804 21.8833ZM48.7653 16.1268C48.7653 15.5231 48.6828 14.9368 48.5128 14.3743C48.3452 13.8105 48.089 13.3092 47.7452 12.8705C47.4015 12.4317 46.9715 12.0817 46.4589 11.8217C45.9464 11.5604 45.3364 11.4304 44.6251 11.4304C43.9764 11.4304 43.4063 11.5642 42.9138 11.8367C42.4238 12.1105 42.0126 12.4642 41.6763 12.9042C41.3438 13.343 41.09 13.8493 40.9238 14.4243C40.7575 14.9993 40.6725 15.5918 40.6725 16.1931C40.6725 16.8206 40.7625 17.4206 40.9388 17.9956C41.12 18.5707 41.3788 19.0769 41.725 19.5144C42.0676 19.9545 42.4913 20.302 42.9938 20.5632C43.4964 20.8245 44.0814 20.9545 44.7526 20.9545C45.3989 20.9545 45.9689 20.8282 46.4614 20.577C46.9502 20.3282 47.3702 19.9832 47.7152 19.5432C48.0577 19.1044 48.319 18.5932 48.5003 18.0081C48.6753 17.4231 48.7653 16.7981 48.7653 16.1268ZM59.2031 17.3706C59.2443 17.8556 59.3568 18.3232 59.5331 18.7732C59.7119 19.2207 59.9519 19.6207 60.2544 19.9682C60.5581 20.3107 60.9344 20.597 61.3807 20.817C61.8332 21.0382 62.3594 21.147 62.9695 21.147C63.657 21.147 64.2895 20.9845 64.8658 20.662C65.4395 20.337 65.8833 19.8607 66.1983 19.2319L70.5884 19.5769C70.0447 21.227 69.0796 22.4745 67.6871 23.3221C66.2996 24.1696 64.6508 24.5908 62.7495 24.5908C61.5357 24.5908 60.4231 24.3933 59.4093 23.9946C58.3943 23.5971 57.528 23.0283 56.8055 22.2845C56.0842 21.5445 55.5205 20.6557 55.113 19.6207C54.7055 18.5844 54.5029 17.4194 54.5029 16.1231C54.5029 14.828 54.7055 13.6493 55.113 12.5967C55.5205 11.5379 56.0842 10.6442 56.8055 9.90039C57.528 9.15787 58.3943 8.58785 59.4093 8.19159C60.4231 7.79532 61.5357 7.59282 62.7495 7.59282C63.9632 7.59282 65.0733 7.79157 66.0908 8.19159C67.1033 8.58535 67.9721 9.15536 68.6921 9.89539C69.4122 10.6404 69.9759 11.5367 70.3859 12.5892C70.7934 13.648 70.996 14.823 70.996 16.1168V17.3681L59.2031 17.3706ZM66.4783 14.4893C66.4383 14.0943 66.3333 13.6893 66.1683 13.2817C65.9983 12.8755 65.7683 12.5042 65.4745 12.1692C65.1808 11.8329 64.827 11.5629 64.407 11.3567C63.9895 11.1479 63.5082 11.0417 62.9682 11.0417C62.3807 11.0417 61.8682 11.1367 61.4294 11.3254C60.9906 11.5142 60.6156 11.7629 60.3019 12.0755C59.9856 12.3892 59.7419 12.7542 59.5644 13.1717C59.3856 13.5893 59.2668 14.0318 59.2031 14.4893H66.4783ZM83.2463 22.0383L83.1776 22.062C82.4226 23.042 81.55 23.7083 80.5575 24.0658C79.565 24.4196 78.6012 24.5958 77.6587 24.5958C77.0336 24.5958 76.3836 24.5133 75.7149 24.3471C75.0461 24.1771 74.4361 23.9033 73.8811 23.5133C73.3273 23.1258 72.8773 22.6208 72.5323 21.992C72.1897 21.362 72.016 20.592 72.016 19.6694C72.016 19.2307 72.0797 18.7457 72.2035 18.2119C72.3285 17.6769 72.6198 17.1706 73.0798 16.6894C73.541 16.2068 74.2298 15.7831 75.1523 15.4168C76.0686 15.0518 77.3124 14.818 78.88 14.7143L83.0476 14.4618V13.708C83.0476 12.7442 82.7713 12.028 82.2176 11.5579C81.665 11.0842 80.8863 10.8504 79.8825 10.8504C78.9412 10.8504 78.2099 11.0667 77.6874 11.4979C77.1649 11.9305 76.8836 12.513 76.8399 13.2517H72.5148C72.556 12.623 72.7085 11.9767 72.9698 11.3192C73.231 10.6617 73.6523 10.0504 74.2398 9.49663C74.8261 8.94411 75.5874 8.48659 76.5299 8.13033C77.4699 7.77782 78.6499 7.59532 80.0725 7.59532C81.0775 7.59532 82.0176 7.69657 82.8951 7.89283C83.7764 8.09158 84.5489 8.40034 85.2189 8.8166C85.8902 9.23787 86.4177 9.77289 86.8064 10.4317C87.1952 11.0867 87.3902 11.8767 87.3902 12.798V22.1345C87.3902 22.5545 87.4102 22.9208 87.449 23.2358C87.489 23.5521 87.5415 23.8546 87.6027 24.1483H83.2488L83.2463 22.0383ZM83.0513 17.1394L79.2887 17.4819C78.2437 17.5869 77.5199 17.7956 77.1236 18.1106C76.7261 18.4219 76.5274 18.8732 76.5274 19.4594C76.5274 19.8144 76.6049 20.112 76.7624 20.352C76.9186 20.5932 77.1224 20.7857 77.3737 20.9332C77.6224 21.0795 77.9212 21.1845 78.2687 21.2482C78.6137 21.3095 78.975 21.3407 79.3487 21.3407C79.705 21.3407 80.0975 21.2895 80.525 21.1845C80.9513 21.0795 81.355 20.9182 81.73 20.6995C82.1101 20.4782 82.4226 20.1945 82.6726 19.8507C82.9238 19.5069 83.0501 19.0957 83.0501 18.6132L83.0513 17.1394Z" fill="#009DE0"/>
</g>
<defs>
<clipPath id="clip0">
<rect width="160" height="24.8058" fill="white"/>
</clipPath>
</defs>
</svg>
