<svg width="180" height="42" viewBox="0 0 180 42" fill="none" xmlns="http://www.w3.org/2000/svg">
<path fill-rule="evenodd" clip-rule="evenodd" d="M54.9062 28.8888V11.2917H59.5888L65.522 24.4418L71.3671 11.2917H75.853V28.8888H71.9917V18.6517L67.5366 28.8888H63.4207L58.9084 18.7075V28.8888H54.9062Z" fill="#0A0B09"/>
<path fill-rule="evenodd" clip-rule="evenodd" d="M91.392 22.0756L88.1612 14.6165L85.0045 22.0756H91.392ZM82.1164 28.8888H77.5755L85.381 11.2917H90.9715L98.8328 28.8888H94.3506L92.8034 25.3835H83.6159L82.1164 28.8888Z" fill="#0A0B09"/>
<path fill-rule="evenodd" clip-rule="evenodd" d="M100.643 28.8888V11.2917H117.445V14.8103H104.701V18.3053H115.628V21.7395H104.701V25.3688H117.476V28.8888H100.643Z" fill="#0A0B09"/>
<path fill-rule="evenodd" clip-rule="evenodd" d="M124.859 19.3717H133.687V14.8103H124.859V19.3717ZM120.744 28.8888V11.2917H134.803C136.682 11.2917 137.772 12.3787 137.772 14.2429V20.1549C137.772 21.5149 136.568 22.7442 134.233 22.7442C134.101 22.7508 133.966 22.7442 133.827 22.7442L137.92 28.8888H133.403L129.523 22.8719H124.859V28.8888H120.744Z" fill="#0A0B09"/>
<path fill-rule="evenodd" clip-rule="evenodd" d="M145.176 28.8991H143.783C141.964 28.8991 141.088 27.8481 141.088 26.3178V24.0191H145.176V25.3805H153.86V21.7783C153.86 21.7783 145.488 21.7783 143.898 21.7783C142.308 21.7783 141.162 20.709 141.162 19.2249V14.0007C141.162 12.4198 142.409 11.3027 143.926 11.3027C145.443 11.3027 155.314 11.3027 155.314 11.3027C156.853 11.3027 157.918 12.4514 157.918 14.1123C157.918 15.771 157.918 16.2121 157.918 16.2121H153.86V14.8213H145.176V18.287H155.109C156.575 18.287 157.918 19.2572 157.918 21.1251V26.1475C157.918 27.8583 156.969 28.8991 155.195 28.8991C153.42 28.8991 145.176 28.8991 145.176 28.8991Z" fill="#0A0B09"/>
<path fill-rule="evenodd" clip-rule="evenodd" d="M161.84 28.8991V11.3005H166.012V18.3391L173.959 11.3005H179.607L170.127 19.4752L179.948 28.8991H174.1L166.012 20.8947V28.8991H161.84Z" fill="#0A0B09"/>
<path fill-rule="evenodd" clip-rule="evenodd" d="M38.0724 35.5075C38.0724 38.0228 36.0343 40.0616 33.519 40.0616H4.7748C2.25884 40.0616 0.21994 38.0228 0.21994 35.5075V4.67083C0.21994 2.1556 2.25884 0.115967 4.7748 0.115967H33.519C36.0343 0.115967 38.0724 2.1556 38.0724 4.67083V35.5075Z" fill="#42B0D5"/>
<path fill-rule="evenodd" clip-rule="evenodd" d="M25.1807 19.0525L32.65 9.68515L32.6266 9.65505L21.8317 14.8536L19.1653 3.17212H19.1278L16.4614 14.8536L5.66656 9.65505L5.64307 9.68515L13.1132 19.0525L2.31757 24.251L2.32711 24.2877H14.308L11.6416 35.9699L11.6754 35.9853L19.1469 26.618L26.617 35.9853L26.6508 35.9684L23.9858 24.2877H35.9667L35.9756 24.251L25.1807 19.0525Z" fill="#FFFFFE"/>
</svg>
