<svg width="100" height="78" viewBox="0 0 100 78" fill="none" xmlns="http://www.w3.org/2000/svg">
<g clip-path="url(#clip0)">
<path d="M18.1974 77.425V72.2748C18.1974 70.3005 16.9957 69.013 14.9356 69.013C13.9056 69.013 12.7897 69.3563 12.0172 70.4722C11.4163 69.528 10.5579 69.013 9.27037 69.013C8.412 69.013 7.55364 69.2705 6.86694 70.2147V69.1846H5.06436V77.425H6.86694V72.8756C6.86694 71.4164 7.63946 70.7297 8.84118 70.7297C10.0429 70.7297 10.6438 71.5022 10.6438 72.8756V77.425H12.4463V72.8756C12.4463 71.4164 13.3047 70.7297 14.4206 70.7297C15.6223 70.7297 16.2232 71.5022 16.2232 72.8756V77.425H18.1974ZM44.8927 69.1846H41.9742V66.6954H40.1717V69.1846H38.5408V70.8155H40.1717V74.5924C40.1717 76.4808 40.9442 77.5966 43.0043 77.5966C43.7768 77.5966 44.6352 77.3392 45.236 76.9958L44.721 75.4507C44.206 75.7941 43.6051 75.8799 43.1759 75.8799C42.3176 75.8799 41.9742 75.3649 41.9742 74.5065V70.8155H44.8927V69.1846ZM60.1716 69.013C59.1416 69.013 58.4549 69.528 58.0257 70.2147V69.1846H56.2232V77.425H58.0257V72.7898C58.0257 71.4164 58.6266 70.6439 59.7425 70.6439C60.0858 70.6439 60.515 70.7297 60.8584 70.8155L61.3734 69.0988C61.03 69.013 60.515 69.013 60.1716 69.013ZM37.0815 69.8713C36.2232 69.2705 35.0214 69.013 33.7339 69.013C31.6738 69.013 30.3004 70.043 30.3004 71.6739C30.3004 73.0473 31.3304 73.8198 33.133 74.0774L33.9914 74.1632C34.9356 74.3348 35.4506 74.5924 35.4506 75.0215C35.4506 75.6224 34.7639 76.0516 33.5622 76.0516C32.3605 76.0516 31.4163 75.6224 30.8154 75.1932L29.9571 76.5666C30.9013 77.2533 32.1888 77.5966 33.4764 77.5966C35.8798 77.5966 37.2532 76.4808 37.2532 74.9357C37.2532 73.4765 36.1373 72.7039 34.4206 72.4464L33.5622 72.3606C32.7897 72.2748 32.1888 72.1031 32.1888 71.5881C32.1888 70.9872 32.7897 70.6439 33.7339 70.6439C34.7639 70.6439 35.794 71.0731 36.309 71.3306L37.0815 69.8713ZM84.9785 69.013C83.9485 69.013 83.2618 69.528 82.8326 70.2147V69.1846H81.03V77.425H82.8326V72.7898C82.8326 71.4164 83.4335 70.6439 84.5494 70.6439C84.8927 70.6439 85.3219 70.7297 85.6652 70.8155L86.1803 69.0988C85.8369 69.013 85.3219 69.013 84.9785 69.013ZM61.9742 73.3048C61.9742 75.7941 63.691 77.5966 66.3519 77.5966C67.5536 77.5966 68.412 77.3392 69.2704 76.6525L68.412 75.1932C67.7253 75.7082 67.0386 75.9658 66.2661 75.9658C64.8068 75.9658 63.7768 74.9357 63.7768 73.3048C63.7768 71.7597 64.8068 70.7297 66.2661 70.6439C67.0386 70.6439 67.7253 70.9014 68.412 71.4164L69.2704 69.9572C68.412 69.2705 67.5536 69.013 66.3519 69.013C63.691 69.013 61.9742 70.8155 61.9742 73.3048ZM78.6266 73.3048V69.1846H76.824V70.2147C76.2232 69.4422 75.3648 69.013 74.2489 69.013C71.9313 69.013 70.1287 70.8155 70.1287 73.3048C70.1287 75.7941 71.9313 77.5966 74.2489 77.5966C75.4506 77.5966 76.309 77.1675 76.824 76.3949V77.425H78.6266V73.3048ZM72.0172 73.3048C72.0172 71.8456 72.9614 70.6439 74.5064 70.6439C75.9657 70.6439 76.9957 71.7597 76.9957 73.3048C76.9957 74.764 75.9657 75.9658 74.5064 75.9658C72.9614 75.8799 72.0172 74.764 72.0172 73.3048ZM50.4721 69.013C48.0687 69.013 46.3519 70.7297 46.3519 73.3048C46.3519 75.8799 48.0687 77.5966 50.5579 77.5966C51.7596 77.5966 52.9614 77.2533 53.9056 76.4808L53.0472 75.1932C52.3605 75.7082 51.5021 76.0516 50.6438 76.0516C49.5279 76.0516 48.412 75.5366 48.1545 74.0774H54.2489C54.2489 73.8198 54.2489 73.6482 54.2489 73.3906C54.3347 70.7297 52.7897 69.013 50.4721 69.013ZM50.4721 70.558C51.588 70.558 52.3605 71.2447 52.5322 72.5323H48.2403C48.412 71.4164 49.1845 70.558 50.4721 70.558ZM95.1931 73.3048V65.9229H93.3905V70.2147C92.7897 69.4422 91.9313 69.013 90.8154 69.013C88.4978 69.013 86.6953 70.8155 86.6953 73.3048C86.6953 75.7941 88.4978 77.5966 90.8154 77.5966C92.0172 77.5966 92.8755 77.1675 93.3905 76.3949V77.425H95.1931V73.3048ZM88.5837 73.3048C88.5837 71.8456 89.5279 70.6439 91.0729 70.6439C92.5322 70.6439 93.5622 71.7597 93.5622 73.3048C93.5622 74.764 92.5322 75.9658 91.0729 75.9658C89.5279 75.8799 88.5837 74.764 88.5837 73.3048ZM28.3262 73.3048V69.1846H26.5236V70.2147C25.9227 69.4422 25.0644 69.013 23.9485 69.013C21.6309 69.013 19.8283 70.8155 19.8283 73.3048C19.8283 75.7941 21.6309 77.5966 23.9485 77.5966C25.1502 77.5966 26.0086 77.1675 26.5236 76.3949V77.425H28.3262V73.3048ZM21.6309 73.3048C21.6309 71.8456 22.5751 70.6439 24.1201 70.6439C25.5794 70.6439 26.6094 71.7597 26.6094 73.3048C26.6094 74.764 25.5794 75.9658 24.1201 75.9658C22.5751 75.8799 21.6309 74.764 21.6309 73.3048Z" fill="black"/>
<path d="M63.5193 6.6095H36.4807V55.1932H63.5193V6.6095Z" fill="#FF5F00"/>
<path d="M38.1974 30.9013C38.1974 21.03 42.8326 12.2747 49.9571 6.60945C44.721 2.48928 38.1116 0 30.9013 0C13.8197 0 0 13.8197 0 30.9013C0 47.9828 13.8197 61.8026 30.9013 61.8026C38.1116 61.8026 44.721 59.3133 49.9571 55.1932C42.8326 49.6138 38.1974 40.7725 38.1974 30.9013Z" fill="#EB001B"/>
<path d="M100 30.9013C100 47.9828 86.1803 61.8026 69.0987 61.8026C61.8884 61.8026 55.279 59.3133 50.0429 55.1932C57.2532 49.5279 61.8026 40.7725 61.8026 30.9013C61.8026 21.03 57.1674 12.2747 50.0429 6.60945C55.279 2.48928 61.8884 0 69.0987 0C86.1803 0 100 13.9056 100 30.9013Z" fill="#F79E1B"/>
</g>
<defs>
<clipPath id="clip0">
<rect width="100" height="77.5966" fill="white"/>
</clipPath>
</defs>
</svg>
