<svg width="180" height="49" viewBox="0 0 180 49" fill="none" xmlns="http://www.w3.org/2000/svg">
<g clip-path="url(#clip0)">
<path fill-rule="evenodd" clip-rule="evenodd" d="M0 0.82251H47.3085V48.131H0V0.82251Z" fill="black"/>
<path fill-rule="evenodd" clip-rule="evenodd" d="M1.36832 2.1897H45.9402V46.7626H1.36832V2.1897Z" fill="#FFF200"/>
<path fill-rule="evenodd" clip-rule="evenodd" d="M3.73319 37.757L9.54753 43.684L23.1703 29.8625L37.2489 43.9687L43.1483 38.1267L29.211 24.1916L31.8903 21.5983V16.0697L33.572 14.6451V18.9764L35.7382 20.7431L42.207 14.2743L44.2872 15.87C45.5131 11.339 38.4165 1.05093 32.5458 6.75057L25.7052 13.5328L27.1022 15.2145L23.6251 18.6056L20.2627 15.2995L22.0294 13.7028L14.5343 6.46482C8.89205 1.81907 3.10638 8.88806 2.90666 15.784L4.95812 14.0746L11.2559 20.8578L13.5071 18.9774V14.8161L14.903 15.87V21.3136L17.6387 24.0492L3.73319 37.757Z" fill="black"/>
<path fill-rule="evenodd" clip-rule="evenodd" d="M59.392 6.49339V10.5973H61.1587C63.5809 10.1416 62.9254 6.66443 61.1587 6.49339H59.392ZM54.3765 2.41813V21.0001H59.392V14.9584L63.667 21.0001H69.595L64.3235 13.5624C70.4225 10.5984 68.1427 2.50416 61.7302 2.41915H54.3765V2.41813ZM77.5745 11.7086C79.2275 11.7086 80.5662 12.9622 80.5662 14.5016C80.5662 16.0399 79.2265 17.2945 77.5745 17.2945C75.9501 17.2945 74.6105 16.0399 74.6105 14.5016C74.6105 12.9622 75.9501 11.7086 77.5745 11.7086ZM76.5196 7.60464C77.8879 7.60464 79.1702 8.06041 80.2241 8.8009V8.08909H85.1259L85.1545 20.999H80.1954L80.2241 20.2012C79.1702 20.9417 77.8879 21.3698 76.5196 21.3698C72.8714 21.3698 69.8797 18.2921 69.8797 14.5016C69.8797 10.711 72.8724 7.60464 76.5196 7.60464ZM87.7488 8.08909H92.964V20.999H87.7488V8.08909ZM90.3697 0.707723C91.8814 0.707723 93.1064 1.96134 93.1064 3.47202C93.1064 4.98271 91.8814 6.23632 90.3697 6.23632C88.8314 6.23632 87.6054 4.98168 87.6054 3.47202C87.6065 1.96236 88.8314 0.707723 90.3697 0.707723ZM129.956 8.08909H135.171V20.999H129.956V8.08909ZM132.549 0.707723C134.088 0.707723 135.313 1.96134 135.313 3.47202C135.313 4.98271 134.088 6.23632 132.549 6.23632C131.038 6.23632 129.813 4.98168 129.813 3.47202C129.813 1.96236 131.038 0.707723 132.549 0.707723ZM93.9329 8.08909V12.193H95.7283V20.999H100.773V12.193H105.504V20.999H110.719V12.1367H113.968V8.14644H110.576V5.26846C110.491 4.21456 112.971 3.78645 113.826 4.64165V0.422997C109.038 -1.08769 105.162 1.62028 105.19 5.80923V8.08909H100.744V5.26846C100.686 4.21456 102.854 3.78645 104.106 4.64165V0.422997C99.9449 -0.801939 95.4999 1.22084 95.5286 5.78055V8.06041L93.9329 8.08909ZM121.406 21.3698C125.881 21.3411 127.533 19.4894 128.503 16.7814H123.971C121.919 19.4034 118.926 17.4943 119.07 15.3568H128.646C128.646 10.1129 125.852 7.63332 121.407 7.63332C116.962 7.63332 114.169 10.7684 114.169 14.5876C114.169 18.4068 117.417 21.3985 121.406 21.3698ZM119.724 12.3077C119.781 10.7397 123.201 10.7397 123.429 12.3077H119.724ZM156.916 21.3698C161.418 21.3411 163.072 19.4894 164.04 16.7814H159.48C157.429 19.4034 154.436 17.4943 154.58 15.3568H164.156C164.156 10.1129 161.391 7.63332 156.917 7.63332C152.471 7.63332 149.679 10.7684 149.679 14.5876C149.679 18.4068 152.925 21.3985 156.916 21.3698ZM155.234 12.3077C155.291 10.7397 158.711 10.7397 158.938 12.3077H155.234ZM148.309 8.34616L146.77 11.4812C144.832 10.8821 142.951 10.9968 143.008 11.5375C143.066 11.8796 142.752 12.4778 145.772 12.9059C150.275 13.6177 149.905 21.9966 142.353 21.3698C140.273 21.2274 138.591 20.6856 137.195 19.8591L138.877 16.4957C141.242 17.6643 143.521 18.3484 143.692 17.1798C143.892 15.7265 141.213 16.2396 139.588 15.0137C136.682 13.2183 138.334 7.66097 143.094 7.60362C144.775 7.49096 146.514 7.77568 148.309 8.34616ZM166.15 8.08909V20.999H171.024V13.1046C171.166 11.1381 175.042 10.796 175.071 13.1046V20.999H180V12.9059C179.886 8.37484 175.127 6.17999 170.823 9.05797V8.08909H166.15ZM57.2545 28.8935L54.0057 48.0449H63.2112C69.4526 48.0449 72.0172 40.2938 67.5712 37.6432C71.3617 34.1374 69.4239 28.8659 65.3487 28.8085L57.2545 28.8935ZM60.9877 40.3215L60.3322 43.4852H62.4697C64.8919 43.5989 64.6072 40.3215 63.2112 40.3215H60.9877ZM62.0702 33.4532L61.5295 36.0188L62.1849 36.0465C64.1514 36.1602 65.2913 33.4532 62.9254 33.4532H62.0702ZM69.6513 48.0736H75.2373L76.919 44.7102H83.2454L84.1856 48.131H89.3435L84.8698 29.0072H79.5973L69.6513 48.0736ZM78.7431 40.6922H82.2202L81.109 35.6471L78.7431 40.6922ZM91.1112 48.131H96.2701L97.5801 36.1325L104.961 48.0736H110.49L112.799 28.8925H107.641L106.187 40.8909L98.805 28.8352H93.4761L91.1112 48.131ZM116.504 28.8362L112.885 48.0736H118.328L119.781 40.8909L124.655 48.0736H131.808L124.826 37.9843L133.746 28.8075H126.821L120.722 35.5897L121.691 28.8075L116.504 28.8362Z" fill="black"/>
</g>
<defs>
<clipPath id="clip0">
<rect width="180" height="48.131" fill="white"/>
</clipPath>
</defs>
</svg>
