<svg width="90" height="84" viewBox="0 0 90 84" fill="none" xmlns="http://www.w3.org/2000/svg">
<path fill-rule="evenodd" clip-rule="evenodd" d="M44.9992 82.0798C41.8812 82.0798 40.2787 80.0465 40.2787 80.0465C37.7162 79.935 17.6896 79.9908 17.6896 79.9908L15.7398 63.5336C15.7398 63.5336 3.40495 54.8391 2.40223 53.8364C-3.51863 26.9759 17.8825 1.3689 45 1.3689C72.1175 1.3689 93.5186 26.9759 87.5978 53.8364C86.595 54.8391 74.2602 63.5336 74.2602 63.5336L72.3104 79.9908C72.3104 79.9908 52.2838 79.935 49.7213 80.0465C49.7213 80.0465 48.1188 82.0798 44.9992 82.0798Z" fill="#ED1C24"/>
<path fill-rule="evenodd" clip-rule="evenodd" d="M45.0282 57.0515L43.1359 9.54622C40.8538 9.08049 35.0321 9.63937 31.9116 11.9681L40.9935 57.2378L28.6049 13.831C25.635 13.7946 19.6421 18.8162 19.197 20.3048L37.2676 58.8213L16.9614 23.6115C14.9588 24.3567 10.5808 32.414 11.2794 33.3502L33.9143 61.0569L10.6274 37.3974C10.6274 37.3974 7.6001 42.0082 9.57429 49.8181L22.7278 59.317L24.3746 72.2944H40.5013C40.5013 72.2944 43.1397 74.7953 45.0117 74.7953C46.8837 74.7953 49.5221 72.2944 49.5221 72.2944H65.6488L67.2956 59.317L80.4491 49.8181C82.4233 42.0082 79.396 37.3974 79.396 37.3974L56.1091 61.0569L78.744 33.3502C79.4426 32.414 75.0646 24.3567 73.062 23.6115L52.7558 58.8213L70.8264 20.3048C70.3813 18.8162 64.3884 13.7946 61.4185 13.831L49.0299 57.2378L58.1118 11.9681C54.9913 9.63937 49.1696 9.08049 46.8875 9.54622L45.0282 57.0515Z" fill="#FFD500"/>
</svg>
