<svg width="150" height="77" viewBox="0 0 150 77" fill="none" xmlns="http://www.w3.org/2000/svg">
<g clip-path="url(#clip0)">
<path d="M74.8546 51.8485C89.1721 51.8485 100.779 40.2418 100.779 25.9242C100.779 11.6067 89.1721 0 74.8546 0C60.537 0 48.9303 11.6067 48.9303 25.9242C48.9303 40.2418 60.537 51.8485 74.8546 51.8485Z" fill="#7433FF"/>
<path d="M67.0529 25.8745H70.2231C70.2231 22.5781 71.5326 19.4168 73.8634 17.0859C76.1943 14.755 79.3557 13.4456 82.652 13.4456V10.2739C80.6034 10.2739 78.5748 10.6775 76.6822 11.4615C74.7895 12.2455 73.0698 13.3946 71.6213 14.8433C70.1727 16.292 69.0237 18.0118 68.2399 19.9045C67.456 21.7972 67.0527 23.8258 67.0529 25.8745Z" fill="white"/>
<path d="M82.6603 25.8743H79.4887C79.4887 29.1717 78.1788 32.3341 75.8472 34.6658C73.5155 36.9974 70.3531 38.3073 67.0557 38.3073V41.4803C69.105 41.4803 71.1343 41.0767 73.0276 40.2924C74.921 39.5081 76.6413 38.3585 78.0903 36.9093C79.5394 35.4602 80.6888 33.7398 81.4729 31.8463C82.257 29.9529 82.6605 27.9236 82.6603 25.8743Z" fill="white"/>
<path d="M6.58565 69.564C6.19654 69.3165 5.77773 69.1192 5.33916 68.9768C4.8999 68.8368 4.4415 68.7662 3.98048 68.7676C3.69456 68.7646 3.40937 68.7972 3.13148 68.8646C2.89744 68.9183 2.67442 69.012 2.47223 69.1416C2.29805 69.2529 2.15166 69.4026 2.04427 69.5792C1.94144 69.7526 1.88871 69.9511 1.89192 70.1526C1.88824 70.3284 1.93641 70.5013 2.03042 70.6498C2.12676 70.7953 2.25761 70.9148 2.41129 70.9975C2.60198 71.1029 2.80603 71.1821 3.01792 71.2329C3.28446 71.3006 3.55446 71.3537 3.82675 71.3922L4.46939 71.4794C4.84477 71.5309 5.21533 71.6129 5.57738 71.7246C5.91956 71.8271 6.24312 71.9838 6.53579 72.1886C6.81439 72.3849 7.04574 72.6409 7.21305 72.9378C7.39123 73.2744 7.47903 73.6514 7.46789 74.032C7.47683 74.4685 7.37384 74.9 7.16873 75.2854C6.9689 75.6526 6.68803 75.9695 6.34743 76.212C5.98907 76.4674 5.58877 76.6582 5.16465 76.7757C4.69938 76.9053 4.21833 76.9696 3.73534 76.9668C3.40786 76.9657 3.08095 76.9393 2.75754 76.8879C2.41824 76.835 2.08348 76.7563 1.75619 76.6524C1.43037 76.5504 1.11389 76.4207 0.810238 76.2646C0.519896 76.1161 0.248357 75.9333 0.00140381 75.7203L0.817164 74.5278C0.992158 74.6842 1.18455 74.8199 1.39055 74.9322C1.86642 75.1922 2.38072 75.3745 2.91404 75.4724C3.18406 75.5222 3.458 75.5477 3.73257 75.5486C4.01913 75.5508 4.30498 75.5197 4.58434 75.4558C4.82864 75.4015 5.06251 75.308 5.27684 75.1788C5.46037 75.0697 5.61779 74.9217 5.73804 74.7453C5.85032 74.5753 5.90917 74.3756 5.90701 74.1719C5.90863 73.9963 5.85889 73.8241 5.7639 73.6765C5.66892 73.5288 5.53283 73.4122 5.3724 73.3409C5.01692 73.1507 4.49847 73.0094 3.81705 72.9171L3.09548 72.8173C2.7515 72.7687 2.41264 72.6889 2.08305 72.5791C1.7651 72.474 1.46727 72.3157 1.20219 72.111C0.941294 71.9079 0.728476 71.6497 0.578945 71.3548C0.411466 71.0101 0.330645 70.6298 0.343497 70.2468C0.335105 69.817 0.434124 69.3919 0.631575 69.01C0.821954 68.6521 1.09033 68.3416 1.41687 68.1014C1.76871 67.8467 2.16314 67.6568 2.58164 67.5405C3.04082 67.411 3.51585 67.3462 3.99295 67.348C4.61459 67.342 5.23319 67.4356 5.82529 67.625C6.36394 67.7991 6.87646 68.0456 7.34878 68.3577L6.58565 69.564ZM19.2846 68.9269H16.2806V76.7923H14.782V68.9297H11.778V67.5114H19.2846V68.9269ZM31.5917 76.7923H29.9809L29.0613 74.4267H24.8606L23.9465 76.7951H22.387L26.0545 67.5156H27.9242L31.5917 76.7923ZM25.4118 73.0057H28.5156L26.963 69.01L25.4118 73.0057ZM40.1855 67.5087C41.2603 67.5087 42.0774 67.7395 42.637 68.2012C43.1965 68.6628 43.4758 69.3281 43.4749 70.1969C43.48 70.5676 43.4053 70.9351 43.2561 71.2745C43.1129 71.5933 42.9016 71.877 42.637 72.1055C42.3517 72.3496 42.0227 72.5376 41.6675 72.6595C41.2536 72.8007 40.8207 72.8782 40.3836 72.8894L43.4403 76.7951H41.5844L38.6177 72.888H37.8629V76.7937H36.3657V67.5142L40.1855 67.5087ZM37.8657 68.9144V71.5265H40.1412C40.7469 71.5265 41.1934 71.4171 41.4805 71.1983C41.7677 70.9795 41.9112 70.6448 41.9112 70.1942C41.9112 69.7519 41.7644 69.4287 41.4708 69.2247C41.1772 69.0206 40.734 68.9181 40.1412 68.9172L37.8657 68.9144ZM55.4177 76.7951H48.7808V67.5156H50.2794V75.381H55.4177V76.7951ZM61.7443 76.7951H60.2458V67.5156H61.7471L61.7443 76.7951ZM75.6164 76.7951H74.2646L69.0875 70.0778L69.0806 76.7951H67.5793V67.5156H68.9324L74.1178 74.2328V67.5156H75.6164V76.7951ZM85.8085 67.3383C86.507 67.3294 87.1999 67.4638 87.8445 67.733C88.4394 67.9833 88.9719 68.3616 89.404 68.841L88.296 69.9089C88.0028 69.5566 87.6359 69.2729 87.2212 69.0779C86.7766 68.8723 86.2915 68.7691 85.8016 68.7759C85.3522 68.7717 84.9062 68.8549 84.4887 69.0211C84.0978 69.1776 83.7437 69.4134 83.4485 69.7136C83.1482 70.0193 82.9127 70.3825 82.756 70.7814C82.5864 71.2188 82.5022 71.6848 82.5081 72.1539C82.5025 72.6228 82.5857 73.0885 82.7533 73.5265C82.9053 73.9248 83.1366 74.2881 83.4333 74.5943C83.7228 74.8923 84.0701 75.128 84.454 75.2868C84.859 75.453 85.2932 75.5363 85.731 75.5319C86.5786 75.5319 87.248 75.3233 87.7392 74.9059C88.2304 74.4886 88.5356 73.8949 88.6547 73.1248H86.2074V71.7398H90.2918C90.2918 71.8008 90.3001 71.8617 90.3015 71.9185C90.3028 71.9753 90.3015 72.0362 90.3015 72.0971C90.3073 72.7351 90.2057 73.3696 90.0009 73.9738C89.806 74.5432 89.5005 75.0685 89.1021 75.5195C88.7034 75.9679 88.2138 76.3263 87.6658 76.5707C87.0606 76.8375 86.4048 76.9698 85.7435 76.9585C85.3437 76.9592 84.9453 76.9127 84.5565 76.82C84.1673 76.7268 83.7907 76.5873 83.4347 76.4045C83.0782 76.2191 82.7465 75.9897 82.4472 75.7217C82.1405 75.447 81.8747 75.1298 81.6577 74.7799C81.4297 74.406 81.2545 74.0024 81.137 73.5805C81.0073 73.1143 80.9439 72.6322 80.9486 72.1484C80.9417 71.4876 81.0655 70.8319 81.3129 70.2191C81.5428 69.6462 81.8877 69.1265 82.3262 68.692C82.7647 68.2575 83.2876 67.9175 83.8626 67.6929C84.4823 67.4503 85.1431 67.3299 85.8085 67.3383ZM106.133 67.5114C106.599 67.5082 107.063 67.5547 107.518 67.6499C107.909 67.7266 108.282 67.875 108.619 68.0876C108.924 68.2831 109.175 68.5522 109.349 68.8701C109.535 69.2315 109.626 69.6342 109.614 70.0404C109.615 70.4943 109.469 70.9364 109.198 71.3008C109.072 71.4717 108.919 71.6213 108.745 71.744C108.573 71.8681 108.381 71.9618 108.178 72.021C108.4 72.0875 108.613 72.1855 108.808 72.3118C109.211 72.5716 109.52 72.9542 109.69 73.4032C109.782 73.6414 109.829 73.8945 109.828 74.1497C109.839 74.5622 109.755 74.9716 109.582 75.3464C109.423 75.6756 109.182 75.9588 108.883 76.169C108.551 76.3954 108.18 76.557 107.788 76.6455C107.315 76.753 106.83 76.8032 106.344 76.7951H102.534V67.5156L106.133 67.5114ZM104.032 68.9172V71.4102H106.088C106.336 71.4105 106.584 71.3961 106.83 71.3673C107.045 71.3463 107.255 71.2891 107.452 71.1983C107.627 71.1128 107.775 70.9805 107.88 70.816C107.995 70.6136 108.05 70.3825 108.039 70.1498C108.049 69.9248 107.994 69.7017 107.88 69.5072C107.774 69.344 107.624 69.2139 107.448 69.1319C107.25 69.0413 107.038 68.9833 106.822 68.9601C106.574 68.9306 106.325 68.9163 106.075 68.9172H104.032ZM104.032 72.816V75.3893H106.28C106.55 75.3911 106.819 75.373 107.086 75.3353C107.303 75.3082 107.512 75.2421 107.705 75.14C107.874 75.0495 108.014 74.9125 108.107 74.7453C108.208 74.5418 108.256 74.3158 108.245 74.0888C108.255 73.8671 108.207 73.6467 108.107 73.4489C108.012 73.2842 107.873 73.1497 107.705 73.0611C107.512 72.9618 107.302 72.8967 107.086 72.8686C106.819 72.832 106.55 72.8144 106.28 72.816H104.032ZM123.23 76.7951H121.618L120.703 74.4267H116.499L115.583 76.7951H114.025L117.692 67.5156H119.562L123.23 76.7951ZM117.05 73.0085H120.152L118.601 69.01L117.05 73.0085ZM136.041 76.7951H134.689L129.509 70.0778V76.7951H128.011V67.5156H129.364L134.549 74.2328V67.5156H136.048L136.041 76.7951ZM144.27 72.8354H143.376V76.7951H141.877V67.5156H143.376V71.4213H144.293L147.78 67.5156H149.719L145.539 72.0404L150.001 76.7951H147.966L144.27 72.8354Z" fill="#6A737B"/>
</g>
<defs>
<clipPath id="clip0">
<rect width="150" height="76.9598" fill="white"/>
</clipPath>
</defs>
</svg>
