<svg width="140" height="40" viewBox="0 0 140 40" fill="none" xmlns="http://www.w3.org/2000/svg">
<g clip-path="url(#clip0)">
<path d="M65.8709 13.4288C65.7845 13.2257 65.7266 12.9699 65.7266 12.7409C65.7266 11.7661 66.5666 11.0211 67.5543 11.0211C68.4254 11.0211 69.0917 11.5638 69.3242 12.3088L73.9952 26.0945L78.5841 12.3675C78.8736 11.5353 79.4829 10.9658 80.3816 10.9658H80.6426C81.5457 10.9658 82.1826 11.5353 82.4419 12.3675L87.0282 26.0945L91.7035 12.282C91.961 11.5638 92.5703 11.0211 93.4431 11.0211C94.4015 11.0211 95.2121 11.7652 95.2121 12.7106C95.2121 12.9388 95.1257 13.2248 95.0384 13.4279L89.0314 30.049C88.7151 30.9366 88.0462 31.5087 87.1734 31.5087H86.8268C85.9574 31.5087 85.3188 30.9659 84.9999 30.049L80.4715 16.9521L75.9431 30.049C75.6268 30.9659 74.9571 31.5087 74.0877 31.5087H73.7377C72.8666 31.5087 72.2297 30.9659 71.8805 30.049L65.8709 13.4288Z" fill="#00AB4E"/>
<path d="M113.832 21.2479V21.1908C113.832 17.2959 110.96 14.0595 106.923 14.0595C102.89 14.0595 100.073 17.2362 100.073 21.1364V21.1908C100.073 25.0901 102.949 28.298 106.984 28.298C111.018 28.2988 113.832 25.1471 113.832 21.2479ZM96.3304 21.2479V21.1908C96.3304 15.5467 100.741 10.8196 106.983 10.8196C113.221 10.8196 117.577 15.4906 117.577 21.1364V21.1908C117.577 26.8383 113.163 31.5638 106.923 31.5638C100.682 31.5638 96.3304 26.8971 96.3304 21.2479Z" fill="#00AB4E"/>
<path d="M120.127 21.2479V21.1908C120.127 15.5761 124.482 10.8196 130.604 10.8196C133.652 10.8196 135.685 11.5351 137.54 12.8548C137.89 13.1114 138.265 13.6006 138.265 14.2867C138.265 15.233 137.481 16.035 136.496 16.035C136.031 16.035 135.685 15.8328 135.394 15.6349C134.087 14.6912 132.665 14.0595 130.458 14.0595C126.716 14.0595 123.87 17.2959 123.87 21.1364V21.1908C123.87 25.3199 126.627 28.3567 130.779 28.3567C132.695 28.3567 134.433 27.7561 135.684 26.8383V23.0843H131.679C130.809 23.0843 130.081 22.4275 130.081 21.5641C130.081 20.7051 130.808 20.0198 131.679 20.0198H137.337C138.353 20.0198 139.136 20.7941 139.136 21.7958V27.1555C139.136 28.158 138.729 28.8744 137.89 29.3886C136.147 30.5362 133.709 31.5638 130.662 31.5638C124.308 31.5638 120.127 27.095 120.127 21.2479Z" fill="#00AB4E"/>
<path d="M42.0812 7.90823C42.0812 4.16193 45.1751 1.10181 48.9741 1.10181C52.7515 1.10181 55.8635 4.17835 55.8635 7.90823C55.8635 9.14489 55.5204 10.3055 54.9293 11.3114L48.9741 21.5167L43.0059 11.3114C42.4183 10.309 42.0812 9.14748 42.0812 7.90823Z" fill="#F6B221"/>
<path d="M22.3948 11.2994C20.497 8.05265 21.6317 3.87771 24.9166 2.00499C28.191 0.140054 32.442 1.26437 34.3328 4.49475L45.2615 23.1891C46.1291 24.6694 46.1291 26.3676 45.2615 27.8488L38.6677 39.1275L22.3948 11.2994Z" fill="#00AB4E"/>
<path d="M1.78544 11.2997C-0.114069 8.05289 1.01976 3.87795 4.30889 2.00524C7.57815 0.140298 11.8317 1.26462 13.7226 4.49499L24.653 23.1893C25.518 24.6697 25.518 26.3678 24.653 27.8491L18.0583 39.1277L1.78544 11.2997Z" fill="#00AB4E"/>
</g>
<defs>
<clipPath id="clip0">
<rect width="140" height="39.7531" fill="white"/>
</clipPath>
</defs>
</svg>
